{"glyphs":{"0":{"ha":476,"x_min":0,"x_max":0,"o":"m 414 532 b 238 1097 414 822 357 1097 b 63 532 118 1097 63 822 b 238 -14 63 242 118 -14 b 414 532 357 -14 414 242 z m 150 532 b 238 1010 150 743 169 1010 b 325 532 306 1010 325 743 b 238 72 325 321 306 72 b 150 532 169 72 150 321 z "},"1":{"ha":279,"x_min":0,"x_max":0,"o":"m 183 0 l 183 1097 l 96 957 l 96 0 z "},"2":{"ha":471,"x_min":0,"x_max":0,"o":"m 401 0 l 401 83 l 169 83 l 169 156 b 218 379 169 247 181 308 b 347 593 258 454 307 521 b 410 840 386 661 410 750 b 217 1097 410 999 338 1097 b 142 1075 175 1097 153 1083 l 142 986 b 206 1010 150 999 178 1010 b 324 831 279 1010 324 956 b 278 647 324 775 308 704 b 144 418 239 571 188 499 b 81 158 101 342 81 263 l 81 0 z "},"3":{"ha":449,"x_min":0,"x_max":0,"o":"m 157 704 b 286 431 242 704 286 607 b 157 72 286 207 242 72 b 85 96 121 72 101 83 l 85 7 b 167 -14 100 -6 122 -14 b 375 431 304 -14 375 150 b 258 754 375 597 338 703 l 392 1082 l 85 1082 l 85 994 l 267 994 z "},"4":{"ha":486,"x_min":0,"x_max":0,"o":"m 389 0 l 389 271 l 428 271 l 428 338 l 389 338 l 389 1097 l 28 271 l 301 271 l 301 0 z m 301 338 l 144 338 l 294 685 l 301 685 z "},"5":{"ha":433,"x_min":0,"x_max":0,"o":"m 286 418 b 157 72 286 207 242 72 b 85 96 121 72 100 83 l 85 7 b 165 -14 99 -6 122 -14 b 375 418 304 -14 375 150 b 167 781 375 611 331 757 l 174 994 l 346 994 l 346 1082 l 92 1082 l 79 711 b 286 418 228 726 286 633 z "},"6":{"ha":501,"x_min":0,"x_max":0,"o":"m 443 354 b 271 736 443 619 372 736 b 157 675 219 736 179 706 l 151 675 b 281 1010 168 888 217 1010 b 353 986 317 1010 338 1000 l 353 1075 b 272 1097 339 1089 315 1097 b 63 422 92 1097 63 822 b 253 -14 63 90 133 -14 b 443 354 372 -14 443 90 z m 151 354 b 253 650 151 535 185 650 b 354 354 321 650 354 535 b 253 72 354 176 321 72 b 151 354 185 72 151 176 z "},"7":{"ha":369,"x_min":0,"x_max":0,"o":"m 172 0 l 331 1082 l 28 1082 l 28 994 l 233 994 l 79 0 z "},"8":{"ha":524,"x_min":0,"x_max":0,"o":"m 467 678 b 261 1101 467 976 364 1101 b 57 678 158 1101 57 976 b 183 272 57 388 110 306 l 183 265 b 74 136 126 256 74 200 b 261 -14 74 42 149 -14 b 449 136 374 -14 449 42 b 340 265 449 200 396 256 l 340 272 b 467 678 413 306 467 388 z m 144 678 b 261 1008 144 889 196 1008 b 378 678 326 1008 378 889 b 261 303 378 382 326 303 b 144 678 196 303 144 382 z m 160 151 b 261 235 160 203 217 235 b 363 151 306 235 363 203 b 261 69 363 101 306 69 b 160 151 217 69 160 101 z "},"9":{"ha":497,"x_min":0,"x_max":0,"o":"m 268 0 b 435 660 374 133 435 364 b 244 1097 435 993 364 1097 b 54 728 125 1097 54 993 b 226 346 54 464 125 346 b 340 407 278 346 318 376 l 346 407 b 158 0 333 276 269 136 z m 346 728 b 244 433 346 547 313 433 b 143 728 176 433 143 547 b 244 1010 143 907 176 1010 b 346 728 313 1010 346 907 z "},"\u0017":{"ha":272,"x_min":0,"x_max":0,"o":""}," ":{"ha":272,"x_min":0,"x_max":0,"o":""},"!":{"ha":313,"x_min":0,"x_max":0,"o":"m 194 328 l 214 1082 l 97 1082 l 115 328 z m 156 -12 b 217 58 197 -12 217 8 b 156 131 217 106 197 131 b 96 58 117 131 96 106 b 156 -12 96 8 117 -12 z "},"\"":{"ha":311,"x_min":0,"x_max":0,"o":"m 106 724 l 121 1082 l 35 1082 l 50 724 z m 261 724 l 276 1082 l 190 1082 l 206 724 z "},"#":{"ha":664,"x_min":0,"x_max":0,"o":"m 340 0 l 424 340 l 586 340 l 586 396 l 433 396 l 506 692 l 625 692 l 625 747 l 518 747 l 597 1082 l 536 1082 l 457 747 l 297 747 l 376 1082 l 314 1082 l 235 747 l 81 747 l 81 692 l 221 692 l 149 396 l 39 396 l 39 340 l 138 340 l 57 0 l 119 0 l 200 340 l 361 340 l 278 0 z m 371 396 l 213 396 l 283 692 l 443 692 z "},"$":{"ha":442,"x_min":0,"x_max":0,"o":"m 253 0 l 253 135 b 375 335 351 168 375 244 b 168 760 375 564 168 583 b 306 864 168 829 208 864 b 351 860 319 864 338 863 l 351 943 b 293 947 333 944 308 947 b 253 944 279 947 265 946 l 253 1082 l 193 1082 l 193 933 b 75 764 100 908 75 846 b 279 340 75 557 279 513 b 125 196 279 221 240 196 b 72 203 106 196 89 199 l 72 122 b 129 118 89 121 113 118 b 193 122 151 118 172 119 l 193 0 z "},"%":{"ha":689,"x_min":0,"x_max":0,"o":"m 269 781 b 165 1092 269 943 238 1092 b 63 781 93 1092 63 943 b 165 479 63 618 93 479 b 269 781 238 479 269 617 z m 124 781 b 165 1042 124 889 129 1042 b 207 781 201 1042 207 889 b 165 529 207 671 200 529 b 124 781 131 529 124 671 z m 151 0 l 608 1082 l 540 1082 l 82 0 z m 626 293 b 522 604 626 456 594 604 b 419 293 450 604 419 456 b 522 -8 419 131 450 -8 b 626 293 594 -8 626 129 z m 481 293 b 522 554 481 401 486 554 b 564 293 558 554 564 401 b 522 42 564 183 557 42 b 481 293 488 42 481 183 z "},"&":{"ha":510,"x_min":0,"x_max":0,"o":"m 513 0 b 401 90 481 18 439 51 b 469 338 443 153 468 239 l 396 338 b 354 146 389 251 375 189 b 233 343 304 207 264 274 b 389 768 326 453 389 558 b 232 1097 389 1017 315 1097 b 60 757 146 1097 60 1017 b 149 349 60 606 94 471 b 61 147 88 265 61 221 b 206 -14 61 38 135 -14 b 343 29 260 -14 306 1 b 375 0 356 17 365 6 z m 147 765 b 232 1004 147 961 188 1004 b 300 763 274 1004 300 944 b 203 419 300 601 281 529 b 147 765 165 528 147 642 z m 228 68 b 146 146 172 68 146 103 b 182 279 146 196 156 238 b 297 90 217 214 254 150 l 300 85 b 228 68 279 72 256 68 z "},"'":{"ha":156,"x_min":0,"x_max":0,"o":"m 106 724 l 121 1082 l 35 1082 l 50 724 z "},"(":{"ha":478,"x_min":0,"x_max":0,"o":"m 451 -137 b 189 514 251 -56 189 171 b 431 1186 189 843 235 1078 l 393 1239 b 117 514 175 1132 117 892 b 418 -192 117 115 199 -107 z "},")":{"ha":476,"x_min":0,"x_max":0,"o":"m 60 -192 b 360 514 279 -107 360 115 b 85 1239 360 892 301 1132 l 46 1186 b 288 514 242 1078 288 843 b 26 -137 288 171 226 -56 z "},"*":{"ha":617,"x_min":0,"x_max":0,"o":"m 497 625 l 351 806 l 576 864 l 553 936 l 335 850 l 350 1082 l 267 1082 l 282 851 l 67 936 l 40 867 l 265 806 l 119 626 l 182 579 l 310 769 l 432 578 z "},"+":{"ha":804,"x_min":0,"x_max":0,"o":"m 436 221 l 436 494 l 708 494 l 708 563 l 436 563 l 436 832 l 368 832 l 368 563 l 96 563 l 96 494 l 368 494 l 368 221 z "},",":{"ha":190,"x_min":0,"x_max":0,"o":"m 97 -12 b 35 -156 75 -81 53 -132 l 92 -156 b 156 58 121 -106 156 0 b 94 131 156 106 135 131 b 35 58 56 131 35 106 b 97 -12 35 8 56 -12 z "},"-":{"ha":260,"x_min":0,"x_max":0,"o":"m 236 271 l 236 338 l 22 338 l 22 271 z "},".":{"ha":190,"x_min":0,"x_max":0,"o":"m 94 -12 b 156 58 135 -12 156 8 b 94 131 156 106 135 131 b 35 58 56 131 35 106 b 94 -12 35 8 56 -12 z "},"/":{"ha":458,"x_min":0,"x_max":0,"o":"m 65 -58 l 458 1099 l 393 1099 l 0 -58 z "},":":{"ha":313,"x_min":0,"x_max":0,"o":"m 156 -12 b 217 58 196 -12 217 8 b 156 131 217 106 196 131 b 96 58 117 131 96 106 b 156 -12 96 8 117 -12 z m 156 514 b 217 588 196 514 217 538 b 156 660 217 635 196 660 b 96 588 117 660 96 635 b 156 514 96 538 117 514 z "},";":{"ha":311,"x_min":0,"x_max":0,"o":"m 169 -87 l 204 0 b 215 58 213 24 215 40 b 154 131 215 106 194 131 b 96 58 115 131 96 106 b 149 -6 96 14 119 -4 l 121 -87 z m 154 514 b 215 588 194 514 215 538 b 154 660 215 635 194 660 b 96 588 115 660 96 635 b 154 514 96 538 115 514 z "},"<":{"ha":804,"x_min":0,"x_max":0,"o":"m 708 118 l 708 203 l 188 533 l 708 861 l 708 947 l 96 561 l 96 504 z "},"=":{"ha":804,"x_min":0,"x_max":0,"o":"m 708 344 l 708 413 l 96 413 l 96 344 z m 708 642 l 708 713 l 96 713 l 96 642 z "},">":{"ha":804,"x_min":0,"x_max":0,"o":"m 708 504 l 708 561 l 96 947 l 96 861 l 618 533 l 96 203 l 96 118 z "},"?":{"ha":382,"x_min":0,"x_max":0,"o":"m 193 328 b 321 840 194 521 321 571 b 128 1097 321 999 249 1097 b 53 1075 86 1097 64 1083 l 53 986 b 117 1010 61 999 89 1010 b 235 831 190 1010 235 956 b 117 328 235 606 121 533 z m 93 58 b 153 -12 93 13 111 -12 b 214 58 196 -12 214 13 b 153 129 214 101 196 129 b 93 58 108 129 94 100 z "},"@":{"ha":600,"x_min":0,"x_max":0,"o":"m 538 -36 b 351 -114 494 -87 431 -114 b 122 467 153 -114 122 76 b 311 956 122 750 135 956 b 485 663 461 956 485 817 l 485 596 b 371 701 467 660 429 701 b 240 411 293 701 240 607 b 371 125 240 217 293 125 b 485 226 428 125 468 168 l 485 138 l 538 138 l 538 650 b 311 1019 538 864 518 1019 b 63 468 79 1019 63 782 b 351 -181 63 83 81 -181 b 538 -115 428 -181 504 -157 z m 481 303 b 385 194 469 246 428 194 b 297 411 331 194 297 260 b 385 631 297 564 331 631 b 481 524 435 631 468 588 z "},"B":{"ha":478,"x_min":0,"x_max":0,"o":"m 96 1090 l 96 -7 b 413 188 351 -7 413 78 b 272 340 413 263 360 326 l 272 344 b 429 686 363 410 429 522 b 96 1090 429 900 344 1083 z m 183 350 l 183 996 b 342 672 293 968 342 822 b 183 350 342 524 290 428 z m 183 281 b 213 283 193 282 204 283 b 326 183 286 283 326 231 b 183 74 326 125 283 74 z "},"C":{"ha":411,"x_min":0,"x_max":0,"o":"m 63 540 b 272 -14 63 150 133 -14 b 353 7 315 -14 339 -6 l 353 96 b 281 72 338 83 317 72 b 151 540 196 72 151 207 b 281 1010 151 875 196 1010 b 353 986 317 1010 338 1000 l 353 1075 b 272 1097 339 1089 315 1097 b 63 540 133 1097 63 932 z "},"D":{"ha":492,"x_min":0,"x_max":0,"o":"m 96 -7 b 429 540 344 0 429 250 b 96 1090 429 831 344 1082 z m 183 996 b 342 540 293 956 342 751 b 183 88 342 329 293 126 z "},"F":{"ha":385,"x_min":0,"x_max":0,"o":"m 185 0 l 185 271 l 317 271 l 317 338 l 185 338 l 185 994 l 326 994 l 326 1082 l 96 1082 l 96 0 z "},"G":{"ha":463,"x_min":0,"x_max":0,"o":"m 306 600 l 306 97 b 258 83 297 89 278 83 b 151 540 185 83 151 250 b 281 1010 151 875 196 1010 b 353 986 317 1010 338 1000 l 353 1075 b 272 1097 339 1089 315 1097 b 63 540 133 1097 63 932 b 260 0 63 150 133 0 b 383 57 307 0 358 26 l 383 600 z "},"H":{"ha":540,"x_min":0,"x_max":0,"o":"m 444 0 l 444 1082 l 354 1082 l 354 338 l 185 338 l 185 1082 l 96 1082 l 96 0 l 185 0 l 185 271 l 354 271 l 354 0 z "},"J":{"ha":307,"x_min":0,"x_max":0,"o":"m 211 1082 l 122 1082 l 122 569 b -14 -133 122 133 88 -8 l 96 -133 b 211 569 164 -25 211 135 z "},"K":{"ha":532,"x_min":0,"x_max":0,"o":"m 546 0 b 218 353 435 54 276 247 l 497 1082 l 407 1082 l 189 494 l 183 494 l 183 1082 l 96 1082 l 96 0 l 183 0 l 183 263 l 186 269 b 400 0 250 156 340 36 z "},"L":{"ha":365,"x_min":0,"x_max":0,"o":"m 338 0 l 338 83 l 185 83 l 185 1082 l 96 1082 l 96 0 z "},"N":{"ha":543,"x_min":0,"x_max":0,"o":"m 447 -50 l 447 1082 l 365 1082 l 365 397 l 360 397 l 96 1132 l 96 0 l 181 0 l 181 647 l 186 647 z "},"P":{"ha":488,"x_min":0,"x_max":0,"o":"m 183 269 b 429 686 344 364 429 481 b 96 1090 429 900 344 1083 l 96 0 l 183 0 z m 183 350 l 183 996 b 342 672 293 968 342 822 b 183 350 342 524 290 428 z "},"Q":{"ha":506,"x_min":0,"x_max":0,"o":"m 535 -133 b 281 78 474 -97 331 7 b 443 586 375 97 443 240 b 253 1108 443 946 372 1108 b 63 586 133 1108 63 946 b 389 -133 63 138 178 36 z m 151 586 b 253 1021 151 849 185 1021 b 354 586 321 1021 354 849 b 253 167 354 321 321 167 b 151 586 185 167 151 321 z "},"R":{"ha":532,"x_min":0,"x_max":0,"o":"m 183 269 l 189 271 b 400 0 253 157 339 36 l 546 0 b 244 308 460 43 342 164 b 429 689 365 397 429 507 b 96 1090 429 899 344 1083 l 96 0 l 183 0 z m 183 350 l 183 996 b 342 674 293 968 342 821 b 183 350 342 522 290 428 z "},"S":{"ha":438,"x_min":0,"x_max":0,"o":"m 74 7 b 154 -14 86 -4 111 -14 b 378 261 296 -14 378 94 b 303 504 378 368 344 435 b 192 675 261 572 225 614 b 147 840 165 724 147 769 b 263 1010 147 950 190 1010 b 329 986 294 1010 319 999 l 329 1075 b 253 1097 317 1083 296 1097 b 60 844 133 1097 60 996 b 124 622 60 754 86 685 b 247 424 156 568 211 494 b 288 261 271 376 288 331 b 143 72 288 144 242 72 b 74 96 110 72 92 81 z "},"T":{"ha":371,"x_min":0,"x_max":0,"o":"m 231 0 l 231 994 l 343 994 l 343 1082 l 28 1082 l 28 994 l 143 994 l 143 0 z "},"U":{"ha":561,"x_min":0,"x_max":0,"o":"m 281 -14 b 469 356 424 -14 469 125 l 469 1082 l 379 1082 l 379 351 b 281 75 379 165 356 75 b 182 351 207 75 182 165 l 182 1082 l 92 1082 l 92 356 b 281 -14 92 125 139 -14 z "},"V":{"ha":503,"x_min":0,"x_max":0,"o":"m 132 1082 l 39 1082 l 247 -50 l 464 1082 l 375 1082 l 254 390 l 249 390 z "},"W":{"ha":836,"x_min":0,"x_max":0,"o":"m 571 -50 l 797 1082 l 710 1082 l 576 363 l 571 363 l 418 1132 l 257 363 l 251 363 l 133 1082 l 39 1082 l 249 -50 l 414 711 l 419 711 z "},"X":{"ha":508,"x_min":0,"x_max":0,"o":"m 481 0 l 307 593 l 458 1082 l 375 1082 l 265 700 l 260 700 l 153 1082 l 65 1082 l 210 585 l 28 0 l 115 0 l 253 471 l 258 471 l 386 0 z "},"Z":{"ha":426,"x_min":0,"x_max":0,"o":"m 367 0 l 367 83 l 172 83 l 367 1082 l 60 1082 l 60 994 l 265 994 l 60 0 z "},"[":{"ha":449,"x_min":0,"x_max":0,"o":"m 408 -190 l 408 -128 l 222 -128 l 222 1176 l 408 1176 l 408 1239 l 151 1239 l 151 -190 z "},"\\":{"ha":460,"x_min":0,"x_max":0,"o":"m 460 -58 l 67 1099 l 0 1099 l 394 -58 z "},"]":{"ha":449,"x_min":0,"x_max":0,"o":"m 297 -190 l 297 1239 l 40 1239 l 40 1176 l 228 1176 l 228 -128 l 40 -128 l 40 -190 z "},"^":{"ha":593,"x_min":0,"x_max":0,"o":"m 557 569 l 294 1097 l 36 569 l 106 569 l 294 951 l 485 569 z "},"_":{"ha":379,"x_min":0,"x_max":0,"o":"m 381 -151 l 381 -96 l 0 -96 l 0 -151 z "},"`":{"ha":299,"x_min":0,"x_max":0,"o":"m 275 1118 l 119 1344 l 22 1344 l 185 1118 z "},"E":{"ha":386,"x_min":0,"x_max":0,"o":"m 332 0 l 332 83 l 185 83 l 185 271 l 317 271 l 317 338 l 185 338 l 185 994 l 319 994 l 319 1082 l 96 1082 l 96 0 z "},"{":{"ha":439,"x_min":0,"x_max":0,"o":"m 399 -192 l 399 -128 l 325 -128 b 225 19 271 -128 225 -101 l 225 403 b 163 524 225 465 208 504 b 225 636 204 538 225 575 l 225 1026 b 325 1175 225 1140 271 1175 l 399 1175 l 399 1239 l 321 1239 b 156 1060 239 1239 156 1199 l 156 664 b 100 558 156 593 143 558 l 61 558 l 61 489 l 100 489 b 156 382 140 489 156 458 l 156 -3 b 321 -192 156 -150 240 -192 z "},"|":{"ha":513,"x_min":0,"x_max":0,"o":"m 292 -253 l 292 1249 l 221 1249 l 221 -253 z "},"}":{"ha":440,"x_min":0,"x_max":0,"o":"m 118 -192 b 285 -3 199 -192 285 -150 l 285 382 b 339 489 285 458 299 489 l 378 489 l 378 558 l 339 558 b 285 664 296 558 285 593 l 285 1060 b 118 1239 285 1199 200 1239 l 40 1239 l 40 1175 l 114 1175 b 214 1026 168 1175 214 1140 l 214 636 b 278 524 214 575 236 538 b 214 403 232 504 214 465 l 214 19 b 114 -128 214 -101 168 -128 l 40 -128 l 40 -192 z "},"~":{"ha":804,"x_min":0,"x_max":0,"o":"m 708 576 b 557 493 664 518 631 493 b 251 569 449 493 361 569 b 96 496 192 569 143 553 l 96 422 b 249 507 142 479 175 507 b 554 429 350 507 442 429 b 708 503 614 429 663 447 z "}," ":{"ha":272,"x_min":0,"x_max":0,"o":""},"¡":{"ha":313,"x_min":0,"x_max":0,"o":"m 118 603 l 99 -151 l 215 -151 l 197 603 z m 157 943 b 96 872 115 943 96 922 b 157 800 96 825 115 800 b 217 872 196 800 217 825 b 157 943 217 922 196 943 z "},"¢":{"ha":479,"x_min":0,"x_max":0,"o":"m 331 0 l 331 119 b 418 135 376 119 403 126 l 418 218 b 331 201 399 210 374 201 b 172 533 226 201 172 297 b 331 867 172 768 226 867 b 418 850 374 867 399 858 l 418 933 b 331 949 403 940 376 947 l 331 1082 l 271 1082 l 271 944 b 63 533 132 922 63 796 b 271 122 63 271 132 146 l 271 0 z "},"£":{"ha":515,"x_min":0,"x_max":0,"o":"m 469 271 l 469 338 l 307 338 b 253 821 294 500 253 649 b 361 1010 253 926 283 1010 b 435 986 389 1010 417 1006 l 435 1075 b 360 1097 418 1089 393 1097 b 165 831 228 1097 165 982 b 238 338 165 635 222 490 l 135 338 l 135 271 l 244 271 b 240 192 244 232 243 213 b 136 215 206 210 174 215 b 31 104 71 215 31 167 b 151 -12 31 26 75 -12 b 282 83 217 -12 258 25 b 451 0 346 26 392 0 l 471 0 l 471 83 l 436 83 b 301 153 388 83 356 113 b 310 271 307 185 310 219 z m 142 46 b 96 104 104 46 96 65 b 144 160 96 140 111 160 b 231 129 168 160 197 154 b 142 46 217 76 189 46 z "},"¤":{"ha":789,"x_min":0,"x_max":0,"o":"m 681 163 l 740 224 l 638 324 b 703 510 678 374 703 439 b 638 697 703 581 679 646 l 739 796 l 679 856 l 582 753 b 396 818 529 793 465 818 b 208 753 324 818 260 793 l 110 856 l 49 796 l 151 696 b 88 510 111 646 88 581 b 151 324 88 440 113 375 l 47 224 l 108 163 l 210 268 b 396 203 261 228 325 203 b 581 268 464 203 528 228 z m 618 510 b 396 289 618 388 518 289 b 172 510 271 289 172 388 b 396 733 172 635 271 733 b 618 510 518 733 618 635 z "},"¥":{"ha":531,"x_min":0,"x_max":0,"o":"m 313 0 l 313 271 l 492 271 l 492 338 l 313 338 l 313 444 l 492 444 l 492 511 l 319 511 l 492 1082 l 408 1082 l 275 586 l 268 586 l 128 1082 l 39 1082 l 218 511 l 39 511 l 39 444 l 225 444 l 225 338 l 39 338 l 39 271 l 225 271 l 225 0 z "},"¦":{"ha":513,"x_min":0,"x_max":0,"o":"m 292 -253 l 292 390 l 221 390 l 221 -253 z m 292 649 l 292 1249 l 221 1249 l 221 649 z "},"§":{"ha":585,"x_min":0,"x_max":0,"o":"m 74 -262 b 154 -285 86 -275 111 -285 b 378 -1 294 -285 376 -181 b 525 271 471 31 525 125 b 450 504 525 363 492 435 b 339 675 413 564 371 618 b 294 831 313 724 294 775 b 411 1010 294 956 338 1010 b 475 986 439 1010 467 999 l 475 1075 b 400 1097 464 1083 442 1097 b 207 821 279 1097 207 999 b 60 569 114 799 60 706 b 124 351 60 485 86 414 b 247 154 164 288 213 224 b 288 0 272 106 288 56 b 140 -197 288 -133 242 -197 b 74 -175 107 -197 86 -186 z m 271 622 b 394 424 310 558 360 494 b 435 271 419 376 435 325 b 367 92 435 179 413 119 b 303 233 354 143 329 189 b 192 406 267 293 224 347 b 147 561 167 453 147 504 b 221 732 147 660 174 714 b 271 622 233 692 250 656 z "},"¨":{"ha":406,"x_min":0,"x_max":0,"o":"m 311 1151 b 364 1215 346 1151 364 1171 b 311 1279 364 1256 346 1279 b 258 1215 278 1279 258 1256 b 311 1151 258 1171 278 1151 z m 92 1151 b 144 1215 128 1151 144 1171 b 92 1279 144 1256 128 1279 b 40 1215 58 1279 40 1256 b 92 1151 40 1171 58 1151 z "},"©":{"ha":818,"x_min":0,"x_max":0,"o":"m 406 51 b 121 554 226 51 121 206 b 414 1032 121 901 244 1032 b 697 543 583 1032 697 901 b 406 51 697 189 583 51 z m 404 -14 b 756 543 619 -14 756 151 b 411 1097 756 939 619 1097 b 63 553 203 1097 63 939 b 404 -14 63 165 189 -14 z m 294 553 b 424 213 294 313 339 213 b 474 225 450 213 465 218 l 474 279 b 429 265 464 272 451 265 b 350 553 378 265 350 347 b 429 840 350 757 378 840 b 474 825 451 840 464 835 l 474 881 b 424 893 465 888 450 893 b 294 553 339 893 294 792 z "},"ª":{"ha":318,"x_min":0,"x_max":0,"o":"m 213 556 l 289 556 l 161 1178 l 28 556 l 104 556 l 125 675 l 190 675 z m 179 742 l 138 742 l 158 857 z "},"«":{"ha":364,"x_min":0,"x_max":0,"o":"m 100 607 l 22 304 l 100 0 l 186 0 l 108 304 l 186 607 z m 254 607 l 176 304 l 254 0 l 340 0 l 263 304 l 340 607 z "},"¬":{"ha":744,"x_min":0,"x_max":0,"o":"m 649 214 l 649 678 l 96 678 l 96 578 l 568 578 l 568 214 z "},"®":{"ha":818,"x_min":0,"x_max":0,"o":"m 404 -14 b 756 543 619 -14 756 151 b 411 1097 756 939 619 1097 b 63 553 203 1097 63 939 b 404 -14 63 165 189 -14 z m 406 51 b 121 554 226 51 121 206 b 414 1032 121 901 244 1032 b 697 543 583 1032 697 901 b 406 51 697 189 583 51 z m 360 385 l 365 389 b 494 221 406 319 456 243 l 582 221 b 399 410 531 247 457 321 b 511 640 472 464 511 533 b 307 889 511 774 460 886 l 307 221 l 360 221 z m 360 436 l 360 831 b 457 633 428 814 457 725 b 360 436 457 542 428 482 z "},"¯":{"ha":426,"x_min":0,"x_max":0,"o":"m 403 1183 l 403 1251 l 22 1251 l 22 1183 z "},"°":{"ha":344,"x_min":0,"x_max":0,"o":"m 171 725 b 283 911 254 725 283 811 b 171 1099 283 1015 254 1099 b 61 911 94 1099 61 1015 b 171 725 61 811 94 725 z m 171 775 b 117 911 132 775 117 836 b 171 1047 117 986 132 1047 b 229 911 214 1047 229 986 b 171 775 229 836 213 775 z "},"±":{"ha":804,"x_min":0,"x_max":0,"o":"m 436 221 l 436 494 l 708 494 l 708 563 l 436 563 l 436 832 l 368 832 l 368 563 l 96 563 l 96 494 l 368 494 l 368 221 z m 708 -1 l 708 67 l 96 67 l 96 -1 z "},"²":{"ha":300,"x_min":0,"x_max":0,"o":"m 249 488 l 249 533 l 121 533 l 121 574 b 253 950 121 735 253 788 b 139 1092 253 1036 214 1092 b 92 1079 110 1092 99 1083 l 92 1031 b 133 1043 101 1039 113 1043 b 192 944 171 1043 192 1008 b 58 575 192 817 58 738 l 58 488 z "},"³":{"ha":289,"x_min":0,"x_max":0,"o":"m 100 875 b 171 724 147 875 171 821 b 100 528 171 601 147 528 b 61 540 81 528 69 533 l 61 492 b 106 479 69 485 81 479 b 233 724 194 479 233 569 b 169 903 233 817 214 874 l 243 1082 l 61 1082 l 61 1035 l 161 1035 z "},"´":{"ha":299,"x_min":0,"x_max":0,"o":"m 113 1118 l 275 1344 l 178 1344 l 22 1118 z "},"¶":{"ha":579,"x_min":0,"x_max":0,"o":"m 479 -285 l 479 994 l 553 994 l 553 1082 l 174 1082 b 40 853 72 1082 40 975 b 200 621 40 713 94 625 l 200 -283 l 267 -283 l 267 994 l 413 994 l 413 -285 z "},"·":{"ha":190,"x_min":0,"x_max":0,"o":"m 94 224 b 156 294 135 224 156 244 b 94 367 156 342 135 367 b 35 294 56 367 35 342 b 94 224 35 244 56 224 z "},"¸":{"ha":165,"x_min":0,"x_max":0,"o":"m 85 -181 b 22 -322 63 -247 39 -300 l 78 -322 b 142 -108 107 -274 142 -167 b 81 -36 142 -61 122 -36 b 22 -108 42 -36 22 -61 b 85 -181 22 -158 42 -181 z "},"¹":{"ha":196,"x_min":0,"x_max":0,"o":"m 129 488 l 129 1092 l 67 1011 l 67 488 z "},"º":{"ha":319,"x_min":0,"x_max":0,"o":"m 278 847 b 153 1158 278 1083 249 1158 b 28 847 57 1158 28 1086 b 153 547 28 611 58 547 b 278 847 247 547 278 611 z m 118 847 b 153 1096 118 1040 126 1096 b 188 847 179 1096 188 1040 b 153 606 188 654 179 606 b 118 847 126 606 118 654 z "},"»":{"ha":364,"x_min":0,"x_max":0,"o":"m 22 607 l 99 304 l 22 0 l 107 0 l 186 304 l 107 607 z m 176 607 l 253 304 l 176 0 l 261 0 l 340 304 l 261 607 z "},"¼":{"ha":663,"x_min":0,"x_max":0,"o":"m 149 488 l 149 1092 l 86 1011 l 86 488 z m 132 0 l 589 1082 l 521 1082 l 63 0 z m 579 0 l 579 149 l 600 149 l 600 186 l 579 186 l 579 604 l 367 149 l 517 149 l 517 0 z m 517 186 l 444 186 l 517 350 z "},"½":{"ha":708,"x_min":0,"x_max":0,"o":"m 149 488 l 149 1092 l 86 1011 l 86 488 z m 132 0 l 589 1082 l 521 1082 l 63 0 z m 642 0 l 642 46 l 514 46 l 514 86 b 646 463 514 247 646 300 b 532 604 646 549 607 604 b 485 592 503 604 492 596 l 485 543 b 526 556 494 551 506 556 b 585 457 564 556 585 521 b 451 88 585 329 451 250 l 451 0 z "},"¾":{"ha":693,"x_min":0,"x_max":0,"o":"m 101 875 b 172 724 149 875 172 821 b 101 528 172 601 149 528 b 63 540 82 528 71 533 l 63 492 b 107 479 71 485 82 479 b 235 724 196 479 235 569 b 171 903 235 817 215 874 l 244 1082 l 63 1082 l 63 1035 l 163 1035 z m 151 0 l 608 1082 l 540 1082 l 82 0 z m 610 0 l 610 149 l 631 149 l 631 186 l 610 186 l 610 604 l 397 149 l 547 149 l 547 0 z m 547 186 l 475 186 l 547 350 z "},"¿":{"ha":382,"x_min":0,"x_max":0,"o":"m 181 603 b 53 90 179 410 53 360 b 246 -167 53 -68 125 -167 b 321 -144 288 -167 310 -153 l 321 -56 b 257 -79 313 -68 285 -79 b 139 100 183 -79 139 -25 b 257 603 139 325 253 397 z m 281 872 b 221 943 281 918 263 943 b 160 872 178 943 160 918 b 221 801 160 829 178 801 b 281 872 265 801 279 831 z "},"À":{"ha":501,"x_min":0,"x_max":0,"o":"m 318 1118 l 163 1344 l 65 1344 l 228 1118 l 253 1118 l 39 0 l 125 0 l 172 271 l 326 271 l 374 0 l 463 0 l 258 1118 z m 247 701 l 253 701 l 315 338 l 183 338 z "},"Á":{"ha":501,"x_min":0,"x_max":0,"o":"m 297 1118 l 460 1344 l 363 1344 l 207 1118 l 253 1118 l 39 0 l 125 0 l 172 271 l 326 271 l 374 0 l 463 0 l 258 1118 z m 247 701 l 253 701 l 315 338 l 183 338 z "},"Â":{"ha":501,"x_min":0,"x_max":0,"o":"m 374 0 l 463 0 l 256 1132 l 39 0 l 125 0 l 172 271 l 326 271 z m 247 701 l 253 701 l 315 338 l 183 338 z m 251 1240 l 363 1118 l 463 1118 l 251 1344 l 39 1118 l 139 1118 z "},"Ã":{"ha":501,"x_min":0,"x_max":0,"o":"m 374 0 l 463 0 l 256 1132 l 39 0 l 125 0 l 172 271 l 326 271 z m 247 701 l 253 701 l 315 338 l 183 338 z m 440 1278 b 344 1228 415 1244 388 1228 b 160 1282 276 1228 226 1282 b 60 1240 121 1282 86 1267 l 60 1161 b 157 1213 86 1196 114 1213 b 342 1158 225 1213 275 1158 b 440 1199 381 1158 415 1172 z "},"Ä":{"ha":501,"x_min":0,"x_max":0,"o":"m 374 0 l 463 0 l 256 1132 l 39 0 l 125 0 l 172 271 l 326 271 z m 247 701 l 253 701 l 315 338 l 183 338 z m 360 1151 b 413 1215 394 1151 413 1171 b 360 1279 413 1256 394 1279 b 307 1215 326 1279 307 1256 b 360 1151 307 1171 326 1151 z m 140 1151 b 193 1215 176 1151 193 1171 b 140 1279 193 1256 176 1279 b 89 1215 107 1279 89 1256 b 140 1151 89 1171 107 1151 z "},"Å":{"ha":501,"x_min":0,"x_max":0,"o":"m 374 0 l 463 0 l 264 1088 b 382 1215 353 1092 382 1158 b 256 1344 382 1272 351 1344 b 128 1215 160 1344 128 1272 b 247 1088 128 1158 157 1092 l 39 0 l 125 0 l 172 271 l 326 271 z m 247 701 l 253 701 l 315 338 l 183 338 z m 256 1135 b 196 1215 219 1135 196 1176 b 256 1296 196 1253 219 1296 b 315 1215 292 1296 315 1253 b 256 1135 315 1176 292 1135 z "},"Æ":{"ha":611,"x_min":0,"x_max":0,"o":"m 544 0 l 544 83 l 397 83 l 397 271 l 529 271 l 529 338 l 397 338 l 397 994 l 532 994 l 532 1082 l 243 1082 l 39 0 l 129 0 l 175 271 l 308 271 l 308 0 z m 303 994 l 308 994 l 308 338 l 186 338 z "},"Ç":{"ha":411,"x_min":0,"x_max":0,"o":"m 63 540 b 272 -14 63 150 133 -14 b 353 7 315 -14 339 -6 l 353 96 b 281 72 338 83 317 72 b 151 540 196 72 151 207 b 281 1010 151 875 196 1010 b 353 986 317 1010 338 1000 l 353 1075 b 272 1097 339 1089 315 1097 b 63 540 133 1097 63 932 z m 271 -181 b 208 -322 249 -247 225 -300 l 264 -322 b 328 -108 293 -274 328 -167 b 267 -36 328 -61 308 -36 b 208 -108 228 -36 208 -61 b 271 -181 208 -158 228 -181 z "},"È":{"ha":386,"x_min":0,"x_max":0,"o":"m 332 0 l 332 83 l 185 83 l 185 271 l 317 271 l 317 338 l 185 338 l 185 994 l 319 994 l 319 1082 l 96 1082 l 96 0 z m 292 1118 l 136 1344 l 39 1344 l 201 1118 z "},"É":{"ha":386,"x_min":0,"x_max":0,"o":"m 332 0 l 332 83 l 185 83 l 185 271 l 317 271 l 317 338 l 185 338 l 185 994 l 319 994 l 319 1082 l 96 1082 l 96 0 z m 213 1118 l 375 1344 l 278 1344 l 122 1118 z "},"Ê":{"ha":386,"x_min":0,"x_max":0,"o":"m 332 0 l 332 83 l 185 83 l 185 271 l 317 271 l 317 338 l 185 338 l 185 994 l 319 994 l 319 1082 l 96 1082 l 96 0 z m 208 1240 l 319 1118 l 419 1118 l 208 1344 l -4 1118 l 96 1118 z "},"Ë":{"ha":386,"x_min":0,"x_max":0,"o":"m 332 0 l 332 83 l 185 83 l 185 271 l 317 271 l 317 338 l 185 338 l 185 994 l 319 994 l 319 1082 l 96 1082 l 96 0 z m 317 1151 b 369 1215 351 1151 369 1171 b 317 1279 369 1256 351 1279 b 264 1215 283 1279 264 1256 b 317 1151 264 1171 283 1151 z m 97 1151 b 150 1215 133 1151 150 1171 b 97 1279 150 1256 133 1279 b 46 1215 64 1279 46 1256 b 97 1151 46 1171 64 1151 z "},"Ì":{"ha":321,"x_min":0,"x_max":0,"o":"m 225 0 l 225 1082 l 136 1082 l 136 0 z m 265 1118 l 110 1344 l 13 1344 l 175 1118 z "},"Í":{"ha":324,"x_min":0,"x_max":0,"o":"m 185 0 l 185 1082 l 96 1082 l 96 0 z m 146 1118 l 308 1344 l 211 1344 l 56 1118 z "},"Î":{"ha":357,"x_min":0,"x_max":0,"o":"m 222 0 l 222 1082 l 133 1082 l 133 0 z m 179 1240 l 290 1118 l 390 1118 l 179 1344 l -33 1118 l 67 1118 z "},"Ï":{"ha":300,"x_min":0,"x_max":0,"o":"m 194 0 l 194 1082 l 106 1082 l 106 0 z m 260 1151 b 313 1215 294 1151 313 1171 b 260 1279 313 1256 294 1279 b 207 1215 226 1279 207 1256 b 260 1151 207 1171 226 1151 z m 40 1151 b 93 1215 76 1151 93 1171 b 40 1279 93 1256 76 1279 b -11 1215 7 1279 -11 1256 b 40 1151 -11 1171 7 1151 z "},"Ñ":{"ha":543,"x_min":0,"x_max":0,"o":"m 447 -50 l 447 1082 l 365 1082 l 365 397 l 360 397 l 96 1132 l 96 0 l 181 0 l 181 647 l 186 647 z m 454 1278 b 358 1228 429 1244 401 1228 b 174 1282 290 1228 240 1282 b 74 1240 135 1282 100 1267 l 74 1161 b 171 1213 100 1196 128 1213 b 356 1158 239 1213 289 1158 b 454 1199 394 1158 429 1172 z "},"Ò":{"ha":506,"x_min":0,"x_max":0,"o":"m 443 531 b 253 1096 443 921 372 1096 b 63 531 133 1096 63 921 b 253 -15 63 139 133 -15 b 443 531 372 -15 443 139 z m 151 531 b 253 1008 151 821 185 1008 b 354 531 321 1008 354 821 b 253 71 354 240 321 71 b 151 531 185 71 151 240 z m 338 1118 l 182 1344 l 85 1344 l 247 1118 z "},"Ó":{"ha":506,"x_min":0,"x_max":0,"o":"m 443 531 b 253 1096 443 921 372 1096 b 63 531 133 1096 63 921 b 253 -15 63 139 133 -15 b 443 531 372 -15 443 139 z m 151 531 b 253 1008 151 821 185 1008 b 354 531 321 1008 354 821 b 253 71 354 240 321 71 b 151 531 185 71 151 240 z m 258 1118 l 421 1344 l 324 1344 l 168 1118 z "},"Ô":{"ha":506,"x_min":0,"x_max":0,"o":"m 443 531 b 253 1096 443 921 372 1096 b 63 531 133 1096 63 921 b 253 -15 63 139 133 -15 b 443 531 372 -15 443 139 z m 151 531 b 253 1008 151 821 185 1008 b 354 531 321 1008 354 821 b 253 71 354 240 321 71 b 151 531 185 71 151 240 z m 254 1240 l 365 1118 l 465 1118 l 254 1344 l 42 1118 l 142 1118 z "},"Õ":{"ha":506,"x_min":0,"x_max":0,"o":"m 443 531 b 253 1096 443 921 372 1096 b 63 531 133 1096 63 921 b 253 -15 63 139 133 -15 b 443 531 372 -15 443 139 z m 151 531 b 253 1008 151 821 185 1008 b 354 531 321 1008 354 821 b 253 71 354 240 321 71 b 151 531 185 71 151 240 z m 443 1278 b 347 1228 418 1244 390 1228 b 163 1282 279 1228 229 1282 b 63 1240 124 1282 89 1267 l 63 1161 b 160 1213 89 1196 117 1213 b 344 1158 228 1213 278 1158 b 443 1199 383 1158 418 1172 z "},"Ö":{"ha":506,"x_min":0,"x_max":0,"o":"m 443 531 b 253 1096 443 921 372 1096 b 63 531 133 1096 63 921 b 253 -15 63 139 133 -15 b 443 531 372 -15 443 139 z m 151 531 b 253 1008 151 821 185 1008 b 354 531 321 1008 354 821 b 253 71 354 240 321 71 b 151 531 185 71 151 240 z m 361 1151 b 414 1215 396 1151 414 1171 b 361 1279 414 1256 396 1279 b 308 1215 328 1279 308 1256 b 361 1151 308 1171 328 1151 z m 142 1151 b 194 1215 178 1151 194 1171 b 142 1279 194 1256 178 1279 b 90 1215 108 1279 90 1256 b 142 1151 90 1171 108 1151 z "},"×":{"ha":672,"x_min":0,"x_max":0,"o":"m 529 286 l 576 335 l 385 528 l 576 719 l 529 767 l 335 575 l 144 767 l 96 719 l 288 528 l 96 336 l 143 288 l 335 478 z "},"Ø":{"ha":506,"x_min":0,"x_max":0,"o":"m 110 -108 l 149 42 b 253 -14 178 3 213 -14 b 443 532 372 -14 443 140 b 392 965 443 729 425 872 l 443 1161 l 399 1172 l 361 1029 b 253 1097 332 1075 294 1097 b 63 532 133 1097 63 922 b 117 103 63 328 82 190 l 64 -96 z m 151 532 b 253 1010 151 822 185 1010 b 325 897 285 1010 308 969 l 163 279 b 151 532 154 349 151 433 z m 354 532 b 253 72 354 242 321 72 b 182 168 222 72 199 106 l 343 782 b 354 532 350 713 354 628 z "},"Ù":{"ha":561,"x_min":0,"x_max":0,"o":"m 281 -14 b 469 356 424 -14 469 125 l 469 1082 l 379 1082 l 379 351 b 281 75 379 165 356 75 b 182 351 207 75 182 165 l 182 1082 l 92 1082 l 92 356 b 281 -14 92 125 139 -14 z m 365 1118 l 210 1344 l 113 1344 l 275 1118 z "},"Ú":{"ha":561,"x_min":0,"x_max":0,"o":"m 281 -14 b 469 356 424 -14 469 125 l 469 1082 l 379 1082 l 379 351 b 281 75 379 165 356 75 b 182 351 207 75 182 165 l 182 1082 l 92 1082 l 92 356 b 281 -14 92 125 139 -14 z m 286 1118 l 449 1344 l 351 1344 l 196 1118 z "},"Û":{"ha":561,"x_min":0,"x_max":0,"o":"m 281 -14 b 469 356 424 -14 469 125 l 469 1082 l 379 1082 l 379 351 b 281 75 379 165 356 75 b 182 351 207 75 182 165 l 182 1082 l 92 1082 l 92 356 b 281 -14 92 125 139 -14 z m 281 1240 l 392 1118 l 492 1118 l 281 1344 l 68 1118 l 168 1118 z "},"Ü":{"ha":561,"x_min":0,"x_max":0,"o":"m 281 -14 b 469 356 424 -14 469 125 l 469 1082 l 379 1082 l 379 351 b 281 75 379 165 356 75 b 182 351 207 75 182 165 l 182 1082 l 92 1082 l 92 356 b 281 -14 92 125 139 -14 z m 389 1151 b 442 1215 424 1151 442 1171 b 389 1279 442 1256 424 1279 b 336 1215 356 1279 336 1256 b 389 1151 336 1171 356 1151 z m 169 1151 b 222 1215 206 1151 222 1171 b 169 1279 222 1256 206 1279 b 118 1215 136 1279 118 1256 b 169 1151 118 1171 136 1151 z "},"Ý":{"ha":519,"x_min":0,"x_max":0,"o":"m 306 0 l 306 479 l 486 1082 l 406 1082 l 268 601 l 263 601 l 124 1082 l 33 1082 l 217 479 l 217 0 z m 265 1118 l 428 1344 l 331 1344 l 175 1118 z "},"Þ":{"ha":488,"x_min":0,"x_max":0,"o":"m 96 0 l 183 0 l 183 133 b 429 538 344 224 429 336 b 183 942 429 740 344 851 l 183 1082 l 96 1082 z m 183 849 b 342 538 290 778 342 689 b 183 226 342 386 290 297 z "},"ß":{"ha":782,"x_min":0,"x_max":0,"o":"m 74 7 b 154 -14 86 -4 111 -14 b 378 261 296 -14 378 94 b 303 504 378 368 344 435 b 192 675 261 572 225 614 b 147 840 165 724 147 769 b 263 1010 147 950 190 1010 b 329 986 294 1010 319 999 l 329 1075 b 253 1097 317 1083 296 1097 b 60 844 133 1097 60 996 b 124 622 60 754 86 685 b 247 424 156 568 211 494 b 288 261 271 376 288 331 b 143 72 288 144 242 72 b 74 96 110 72 92 81 z m 418 7 b 499 -14 431 -4 456 -14 b 722 261 640 -14 722 94 b 647 504 722 368 689 435 b 536 675 606 572 569 614 b 492 840 510 724 492 769 b 607 1010 492 950 535 1010 b 674 986 639 1010 664 999 l 674 1075 b 597 1097 661 1083 640 1097 b 404 844 478 1097 404 996 b 468 622 404 754 431 685 b 592 424 500 568 556 494 b 632 261 615 376 632 331 b 488 72 632 144 586 72 b 418 96 454 72 436 81 z "},"Ð":{"ha":492,"x_min":0,"x_max":0,"o":"m 29 271 l 96 271 l 96 -7 b 429 540 344 0 429 250 b 96 1090 429 831 344 1082 l 96 338 l 29 338 z m 183 996 b 342 540 293 956 342 751 b 325 338 342 469 336 400 l 183 338 z m 183 88 l 183 271 l 308 271 b 183 88 283 178 242 107 z "},"÷":{"ha":804,"x_min":0,"x_max":0,"o":"m 708 493 l 708 561 l 96 561 l 96 493 z m 401 696 b 463 767 442 696 463 717 b 401 839 463 814 442 839 b 342 767 363 839 342 814 b 401 696 342 717 363 696 z m 401 200 b 463 271 442 200 463 221 b 401 343 463 318 442 343 b 342 271 363 343 342 318 b 401 200 342 221 363 200 z "},"ÿ":{"ha":519,"x_min":0,"x_max":0,"o":"m 306 0 l 306 479 l 486 1082 l 406 1082 l 268 601 l 263 601 l 124 1082 l 33 1082 l 217 479 l 217 0 z m 368 1151 b 421 1215 403 1151 421 1171 b 368 1279 421 1256 403 1279 b 315 1215 335 1279 315 1256 b 368 1151 315 1171 335 1151 z m 149 1151 b 201 1215 185 1151 201 1171 b 149 1279 201 1256 185 1279 b 97 1215 115 1279 97 1256 b 149 1151 97 1171 115 1151 z "},"Ā":{"ha":501,"x_min":0,"x_max":0,"o":"m 374 0 l 463 0 l 256 1132 l 39 0 l 125 0 l 172 271 l 326 271 z m 247 701 l 253 701 l 315 338 l 183 338 z m 446 1183 l 446 1251 l 65 1251 l 65 1183 z "},"Ă":{"ha":501,"x_min":0,"x_max":0,"o":"m 369 1344 b 257 1172 356 1231 333 1172 b 144 1344 179 1172 157 1231 l 60 1344 b 253 1118 74 1204 124 1119 l 39 0 l 125 0 l 172 271 l 326 271 l 374 0 l 463 0 l 258 1118 b 451 1344 388 1118 440 1203 z m 247 701 l 253 701 l 315 338 l 183 338 z "},"Ą":{"ha":501,"x_min":0,"x_max":0,"o":"m 463 -215 b 354 -235 438 -228 406 -235 b 250 -153 282 -235 250 -212 b 463 0 250 -67 328 -25 l 256 1132 l 39 0 l 125 0 l 172 271 l 326 271 l 374 0 b 175 -183 281 -12 175 -61 b 350 -322 175 -281 250 -322 b 463 -300 401 -322 446 -312 z m 247 701 l 253 701 l 315 338 l 183 338 z "},"Ć":{"ha":411,"x_min":0,"x_max":0,"o":"m 63 540 b 272 -14 63 150 133 -14 b 353 7 315 -14 339 -6 l 353 96 b 281 72 338 83 317 72 b 151 540 196 72 151 207 b 281 1010 151 875 196 1010 b 353 986 317 1010 338 1000 l 353 1075 b 272 1097 339 1089 315 1097 b 63 540 133 1097 63 932 z m 257 1118 l 419 1344 l 322 1344 l 167 1118 z "},"Ċ":{"ha":411,"x_min":0,"x_max":0,"o":"m 63 540 b 272 -14 63 150 133 -14 b 353 7 315 -14 339 -6 l 353 96 b 281 72 338 83 317 72 b 151 540 196 72 151 207 b 281 1010 151 875 196 1010 b 353 986 317 1010 338 1000 l 353 1075 b 272 1097 339 1089 315 1097 b 63 540 133 1097 63 932 z m 260 1151 b 314 1215 296 1151 314 1171 b 260 1279 314 1256 296 1279 b 208 1215 226 1279 208 1256 b 260 1151 208 1171 226 1151 z "},"Č":{"ha":411,"x_min":0,"x_max":0,"o":"m 63 540 b 272 -14 63 150 133 -14 b 353 7 315 -14 339 -6 l 353 96 b 281 72 338 83 317 72 b 151 540 196 72 151 207 b 281 1010 151 875 196 1010 b 353 986 317 1010 338 1000 l 353 1075 b 272 1097 339 1089 315 1097 b 63 540 133 1097 63 932 z m 251 1222 l 140 1344 l 40 1344 l 251 1118 l 464 1344 l 364 1344 z "},"Ď":{"ha":492,"x_min":0,"x_max":0,"o":"m 96 -7 b 429 540 344 0 429 250 b 96 1090 429 831 344 1082 z m 183 996 b 342 540 293 956 342 751 b 183 88 342 329 293 126 z m 204 1222 l 93 1344 l -7 1344 l 204 1118 l 417 1344 l 317 1344 z "},"Ē":{"ha":386,"x_min":0,"x_max":0,"o":"m 332 0 l 332 83 l 185 83 l 185 271 l 317 271 l 317 338 l 185 338 l 185 994 l 319 994 l 319 1082 l 96 1082 l 96 0 z m 397 1183 l 397 1251 l 17 1251 l 17 1183 z "},"Ė":{"ha":386,"x_min":0,"x_max":0,"o":"m 332 0 l 332 83 l 185 83 l 185 271 l 317 271 l 317 338 l 185 338 l 185 994 l 319 994 l 319 1082 l 96 1082 l 96 0 z m 206 1151 b 260 1215 242 1151 260 1171 b 206 1279 260 1256 242 1279 b 154 1215 172 1279 154 1256 b 206 1151 154 1171 172 1151 z "},"Ę":{"ha":386,"x_min":0,"x_max":0,"o":"m 332 -215 b 224 -235 307 -228 275 -235 b 119 -153 151 -235 119 -212 b 332 0 119 -67 197 -25 l 332 83 l 185 83 l 185 271 l 317 271 l 317 338 l 185 338 l 185 994 l 319 994 l 319 1082 l 96 1082 l 96 0 l 243 0 b 44 -183 150 -12 44 -61 b 219 -322 44 -281 119 -322 b 332 -300 271 -322 315 -312 z "},"Ě":{"ha":386,"x_min":0,"x_max":0,"o":"m 332 0 l 332 83 l 185 83 l 185 271 l 317 271 l 317 338 l 185 338 l 185 994 l 319 994 l 319 1082 l 96 1082 l 96 0 z m 207 1222 l 96 1344 l -4 1344 l 207 1118 l 419 1344 l 319 1344 z "},"Ğ":{"ha":463,"x_min":0,"x_max":0,"o":"m 306 600 l 306 97 b 258 83 297 89 278 83 b 151 540 185 83 151 250 b 281 1010 151 875 196 1010 b 353 986 317 1010 338 1000 l 353 1075 b 272 1097 339 1089 315 1097 b 63 540 133 1097 63 932 b 260 0 63 150 133 0 b 383 57 307 0 358 26 l 383 600 z m 381 1344 b 268 1168 367 1231 344 1168 b 156 1344 190 1168 168 1231 l 71 1344 b 268 1118 85 1203 136 1118 b 463 1344 399 1118 451 1203 z "},"Ġ":{"ha":463,"x_min":0,"x_max":0,"o":"m 306 600 l 306 97 b 258 83 297 89 278 83 b 151 540 185 83 151 250 b 281 1010 151 875 196 1010 b 353 986 317 1010 338 1000 l 353 1075 b 272 1097 339 1089 315 1097 b 63 540 133 1097 63 932 b 260 0 63 150 133 0 b 383 57 307 0 358 26 l 383 600 z m 265 1151 b 319 1215 301 1151 319 1171 b 265 1279 319 1256 301 1279 b 214 1215 232 1279 214 1256 b 265 1151 214 1171 232 1151 z "},"Ģ":{"ha":463,"x_min":0,"x_max":0,"o":"m 306 600 l 306 97 b 258 83 297 89 278 83 b 151 540 185 83 151 250 b 281 1010 151 875 196 1010 b 353 986 317 1010 338 1000 l 353 1075 b 272 1097 339 1089 315 1097 b 63 540 133 1097 63 932 b 260 0 63 150 133 0 b 383 57 307 0 358 26 l 383 600 z m 256 -181 b 193 -322 233 -247 210 -300 l 249 -322 b 313 -108 278 -274 313 -167 b 251 -36 313 -61 293 -36 b 193 -108 213 -36 193 -61 b 256 -181 193 -158 213 -181 z "},"Ħ":{"ha":540,"x_min":0,"x_max":0,"o":"m 444 0 l 444 446 l 513 446 l 513 514 l 444 514 l 444 1082 l 354 1082 l 354 514 l 185 514 l 185 1082 l 96 1082 l 96 514 l 28 514 l 28 446 l 96 446 l 96 0 l 185 0 l 185 271 l 354 271 l 354 0 z m 185 338 l 185 446 l 354 446 l 354 338 z "},"Ĩ":{"ha":281,"x_min":0,"x_max":0,"o":"m 185 0 l 185 1082 l 96 1082 l 96 0 z m 331 1278 b 235 1228 306 1244 278 1228 b 50 1282 167 1228 117 1282 b -50 1240 11 1282 -24 1267 l -50 1161 b 47 1213 -24 1196 4 1213 b 232 1158 115 1213 165 1158 b 331 1199 271 1158 306 1172 z "},"Ī":{"ha":281,"x_min":0,"x_max":0,"o":"m 281 1183 l 281 1251 l 0 1251 l 0 1183 z m 185 0 l 185 1082 l 96 1082 l 96 0 z "},"Ĭ":{"ha":399,"x_min":0,"x_max":0,"o":"m 244 0 l 244 1082 l 156 1082 l 156 0 z m 314 1344 b 201 1168 300 1231 278 1168 b 89 1344 124 1168 101 1231 l 4 1344 b 201 1118 18 1203 69 1118 b 396 1344 332 1118 385 1203 z "},"Į":{"ha":281,"x_min":0,"x_max":0,"o":"m 185 -215 b 76 -235 160 -228 128 -235 b -28 -153 4 -235 -28 -212 b 185 0 -28 -67 50 -25 l 185 1082 l 96 1082 l 96 0 b -103 -183 3 -12 -103 -61 b 72 -322 -103 -281 -28 -322 b 185 -300 124 -322 168 -312 z "},"İ":{"ha":281,"x_min":0,"x_max":0,"o":"m 185 0 l 185 1082 l 96 1082 l 96 0 z m 139 1151 b 193 1215 175 1151 193 1171 b 139 1279 193 1256 175 1279 b 88 1215 106 1279 88 1256 b 139 1151 88 1171 106 1151 z "},"Ĳ":{"ha":588,"x_min":0,"x_max":0,"o":"m 185 0 l 185 1082 l 96 1082 l 96 0 z m 492 1082 l 403 1082 l 403 569 b 267 -133 403 133 368 -8 l 376 -133 b 492 569 444 -25 492 135 z "},"Ķ":{"ha":532,"x_min":0,"x_max":0,"o":"m 546 0 b 218 353 435 54 276 247 l 497 1082 l 407 1082 l 189 494 l 183 494 l 183 1082 l 96 1082 l 96 0 l 183 0 l 183 263 l 186 269 b 400 0 250 156 340 36 z m 293 -181 b 231 -322 271 -247 247 -300 l 286 -322 b 350 -108 315 -274 350 -167 b 289 -36 350 -61 331 -36 b 231 -108 250 -36 231 -61 b 293 -181 231 -158 250 -181 z "},"Ĺ":{"ha":365,"x_min":0,"x_max":0,"o":"m 338 0 l 338 83 l 185 83 l 185 1082 l 96 1082 l 96 0 z m 188 1118 l 350 1344 l 253 1344 l 97 1118 z "},"Ļ":{"ha":365,"x_min":0,"x_max":0,"o":"m 338 0 l 338 83 l 185 83 l 185 1082 l 96 1082 l 96 0 z m 213 -181 b 150 -322 190 -247 167 -300 l 206 -322 b 269 -108 235 -274 269 -167 b 208 -36 269 -61 250 -36 b 150 -108 169 -36 150 -61 b 213 -181 150 -158 169 -181 z "},"Ľ":{"ha":365,"x_min":0,"x_max":0,"o":"m 338 0 l 338 83 l 185 83 l 185 1082 l 96 1082 l 96 0 z m 297 954 b 235 813 275 888 253 836 l 292 813 b 356 1026 321 861 356 968 b 294 1099 356 1074 335 1099 b 235 1026 256 1099 235 1074 b 297 954 235 976 256 954 z "},"Ł":{"ha":365,"x_min":0,"x_max":0,"o":"m 338 0 l 338 83 l 185 83 l 185 531 l 304 574 l 304 629 l 185 586 l 185 1082 l 96 1082 l 96 554 l 44 536 l 44 481 l 96 499 l 96 0 z "},"Ń":{"ha":543,"x_min":0,"x_max":0,"o":"m 447 -50 l 447 1082 l 365 1082 l 365 397 l 360 397 l 96 1132 l 96 0 l 181 0 l 181 647 l 186 647 z m 276 1118 l 439 1344 l 342 1344 l 186 1118 z "},"Ņ":{"ha":543,"x_min":0,"x_max":0,"o":"m 447 -50 l 447 1082 l 365 1082 l 365 397 l 360 397 l 96 1132 l 96 0 l 181 0 l 181 647 l 186 647 z m 293 -181 b 231 -322 271 -247 247 -300 l 286 -322 b 350 -108 315 -274 350 -167 b 289 -36 350 -61 331 -36 b 231 -108 250 -36 231 -61 b 293 -181 231 -158 250 -181 z "},"Ň":{"ha":543,"x_min":0,"x_max":0,"o":"m 447 -50 l 447 1082 l 365 1082 l 365 397 l 360 397 l 96 1132 l 96 0 l 181 0 l 181 647 l 186 647 z m 271 1222 l 160 1344 l 60 1344 l 271 1118 l 483 1344 l 383 1344 z "},"Ŋ":{"ha":536,"x_min":0,"x_max":0,"o":"m 447 1082 l 358 1082 l 358 569 b 356 407 358 510 357 457 l 96 1132 l 96 0 l 181 0 l 181 647 l 186 647 l 344 222 b 222 -133 326 47 289 -51 l 336 -133 b 447 492 400 -32 442 115 z "},"Ō":{"ha":506,"x_min":0,"x_max":0,"o":"m 443 531 b 253 1096 443 921 372 1096 b 63 531 133 1096 63 921 b 253 -15 63 139 133 -15 b 443 531 372 -15 443 139 z m 151 531 b 253 1008 151 821 185 1008 b 354 531 321 1008 354 821 b 253 71 354 240 321 71 b 151 531 185 71 151 240 z m 443 1183 l 443 1251 l 63 1251 l 63 1183 z "},"Ő":{"ha":506,"x_min":0,"x_max":0,"o":"m 443 531 b 253 1096 443 921 372 1096 b 63 531 133 1096 63 921 b 253 -15 63 139 133 -15 b 443 531 372 -15 443 139 z m 151 531 b 253 1008 151 821 185 1008 b 354 531 321 1008 354 821 b 253 71 354 240 321 71 b 151 531 185 71 151 240 z m 367 1118 l 529 1344 l 432 1344 l 276 1118 z m 149 1118 l 311 1344 l 214 1344 l 58 1118 z "},"Œ":{"ha":657,"x_min":0,"x_max":0,"o":"m 590 0 l 590 83 l 443 83 l 443 271 l 575 271 l 575 338 l 443 338 l 443 994 l 578 994 l 578 1082 l 354 1082 l 354 1038 b 253 1097 325 1078 292 1097 b 63 532 133 1097 63 922 b 253 -14 63 140 133 -14 b 354 39 292 -14 325 1 l 354 0 z m 151 532 b 253 1010 151 822 185 1010 b 354 532 321 1010 354 822 b 253 72 354 242 321 72 b 151 532 185 72 151 242 z "},"Ŕ":{"ha":532,"x_min":0,"x_max":0,"o":"m 183 269 l 189 271 b 400 0 253 157 339 36 l 546 0 b 244 308 460 43 342 164 b 429 689 365 397 429 507 b 96 1090 429 899 344 1083 l 96 0 l 183 0 z m 183 350 l 183 996 b 342 674 293 968 342 821 b 183 350 342 522 290 428 z m 243 1118 l 406 1344 l 308 1344 l 153 1118 z "},"Ŗ":{"ha":532,"x_min":0,"x_max":0,"o":"m 183 269 l 189 271 b 400 0 253 157 339 36 l 546 0 b 244 308 460 43 342 164 b 429 689 365 397 429 507 b 96 1090 429 899 344 1083 l 96 0 l 183 0 z m 183 350 l 183 996 b 342 674 293 968 342 821 b 183 350 342 522 290 428 z m 282 -181 b 219 -322 260 -247 236 -300 l 275 -322 b 339 -108 304 -274 339 -167 b 278 -36 339 -61 319 -36 b 219 -108 239 -36 219 -61 b 282 -181 219 -158 239 -181 z "},"Ř":{"ha":532,"x_min":0,"x_max":0,"o":"m 183 269 l 189 271 b 400 0 253 157 339 36 l 546 0 b 244 308 460 43 342 164 b 429 689 365 397 429 507 b 96 1090 429 899 344 1083 l 96 0 l 183 0 z m 183 350 l 183 996 b 342 674 293 968 342 821 b 183 350 342 522 290 428 z m 238 1222 l 126 1344 l 26 1344 l 238 1118 l 450 1344 l 350 1344 z "},"Ś":{"ha":438,"x_min":0,"x_max":0,"o":"m 74 7 b 154 -14 86 -4 111 -14 b 378 261 296 -14 378 94 b 303 504 378 368 344 435 b 192 675 261 572 225 614 b 147 840 165 724 147 769 b 263 1010 147 950 190 1010 b 329 986 294 1010 319 999 l 329 1075 b 253 1097 317 1083 296 1097 b 60 844 133 1097 60 996 b 124 622 60 754 86 685 b 247 424 156 568 211 494 b 288 261 271 376 288 331 b 143 72 288 144 242 72 b 74 96 110 72 92 81 z m 251 1118 l 414 1344 l 317 1344 l 161 1118 z "},"Ş":{"ha":438,"x_min":0,"x_max":0,"o":"m 74 7 b 154 -14 86 -4 111 -14 b 378 261 296 -14 378 94 b 303 504 378 368 344 435 b 192 675 261 572 225 614 b 147 840 165 724 147 769 b 263 1010 147 950 190 1010 b 329 986 294 1010 319 999 l 329 1075 b 253 1097 317 1083 296 1097 b 60 844 133 1097 60 996 b 124 622 60 754 86 685 b 247 424 156 568 211 494 b 288 261 271 376 288 331 b 143 72 288 144 242 72 b 74 96 110 72 92 81 z m 193 -181 b 131 -322 171 -247 147 -300 l 186 -322 b 250 -108 215 -274 250 -167 b 189 -36 250 -61 231 -36 b 131 -108 150 -36 131 -61 b 193 -181 131 -158 150 -181 z "},"Š":{"ha":438,"x_min":0,"x_max":0,"o":"m 74 7 b 154 -14 86 -4 111 -14 b 378 261 296 -14 378 94 b 303 504 378 368 344 435 b 192 675 261 572 225 614 b 147 840 165 724 147 769 b 263 1010 147 950 190 1010 b 329 986 294 1010 319 999 l 329 1075 b 253 1097 317 1083 296 1097 b 60 844 133 1097 60 996 b 124 622 60 754 86 685 b 247 424 156 568 211 494 b 288 261 271 376 288 331 b 143 72 288 144 242 72 b 74 96 110 72 92 81 z m 221 1222 l 110 1344 l 10 1344 l 221 1118 l 433 1344 l 333 1344 z "},"Ť":{"ha":371,"x_min":0,"x_max":0,"o":"m 231 0 l 231 994 l 343 994 l 343 1082 l 28 1082 l 28 994 l 143 994 l 143 0 z m 185 1222 l 74 1344 l -26 1344 l 185 1118 l 397 1344 l 297 1344 z "},"Ŧ":{"ha":371,"x_min":0,"x_max":0,"o":"m 231 0 l 231 446 l 333 446 l 333 514 l 231 514 l 231 994 l 343 994 l 343 1082 l 28 1082 l 28 994 l 143 994 l 143 514 l 36 514 l 36 446 l 143 446 l 143 0 z "},"Ũ":{"ha":561,"x_min":0,"x_max":0,"o":"m 281 -14 b 469 356 424 -14 469 125 l 469 1082 l 379 1082 l 379 351 b 281 75 379 165 356 75 b 182 351 207 75 182 165 l 182 1082 l 92 1082 l 92 356 b 281 -14 92 125 139 -14 z m 471 1278 b 375 1228 446 1244 418 1228 b 190 1282 307 1228 257 1282 b 90 1240 151 1282 117 1267 l 90 1161 b 188 1213 117 1196 144 1213 b 372 1158 256 1213 306 1158 b 471 1199 411 1158 446 1172 z "},"Ū":{"ha":561,"x_min":0,"x_max":0,"o":"m 281 -14 b 469 356 424 -14 469 125 l 469 1082 l 379 1082 l 379 351 b 281 75 379 165 356 75 b 182 351 207 75 182 165 l 182 1082 l 92 1082 l 92 356 b 281 -14 92 125 139 -14 z m 471 1183 l 471 1251 l 90 1251 l 90 1183 z "},"Ŭ":{"ha":561,"x_min":0,"x_max":0,"o":"m 281 -14 b 469 356 424 -14 469 125 l 469 1082 l 379 1082 l 379 351 b 281 75 379 165 356 75 b 182 351 207 75 182 165 l 182 1082 l 92 1082 l 92 356 b 281 -14 92 125 139 -14 z m 394 1344 b 282 1168 381 1231 358 1168 b 169 1344 204 1168 182 1231 l 85 1344 b 282 1118 99 1203 150 1118 b 476 1344 413 1118 465 1203 z "},"Ů":{"ha":561,"x_min":0,"x_max":0,"o":"m 281 -14 b 469 356 424 -14 469 125 l 469 1082 l 379 1082 l 379 351 b 281 75 379 165 356 75 b 182 351 207 75 182 165 l 182 1082 l 92 1082 l 92 356 b 281 -14 92 125 139 -14 z m 281 1088 b 407 1215 376 1088 407 1157 b 281 1344 407 1272 376 1344 b 153 1215 185 1344 153 1272 b 281 1088 153 1157 185 1088 z m 281 1135 b 221 1215 244 1135 221 1176 b 281 1296 221 1253 244 1296 b 340 1215 317 1296 340 1253 b 281 1135 340 1176 317 1135 z "},"Ű":{"ha":561,"x_min":0,"x_max":0,"o":"m 281 -14 b 469 356 424 -14 469 125 l 469 1082 l 379 1082 l 379 351 b 281 75 379 165 356 75 b 182 351 207 75 182 165 l 182 1082 l 92 1082 l 92 356 b 281 -14 92 125 139 -14 z m 394 1118 l 557 1344 l 460 1344 l 304 1118 z m 176 1118 l 339 1344 l 242 1344 l 86 1118 z "},"Ų":{"ha":561,"x_min":0,"x_max":0,"o":"m 396 -215 b 288 -235 371 -228 339 -235 b 183 -153 215 -235 183 -212 b 318 -10 183 -85 229 -32 b 469 356 435 19 469 146 l 469 1082 l 379 1082 l 379 351 b 281 75 379 165 356 75 b 182 351 207 75 182 165 l 182 1082 l 92 1082 l 92 356 b 238 -8 92 150 129 17 b 108 -183 168 -36 108 -90 b 283 -322 108 -281 183 -322 b 396 -300 335 -322 379 -312 z "},"Ŵ":{"ha":836,"x_min":0,"x_max":0,"o":"m 571 -50 l 797 1082 l 710 1082 l 576 363 l 571 363 l 418 1132 l 257 363 l 251 363 l 133 1082 l 39 1082 l 249 -50 l 414 711 l 419 711 z m 418 1240 l 529 1118 l 629 1118 l 418 1344 l 206 1118 l 306 1118 z "},"Ŷ":{"ha":519,"x_min":0,"x_max":0,"o":"m 306 0 l 306 479 l 486 1082 l 406 1082 l 268 601 l 263 601 l 124 1082 l 33 1082 l 217 479 l 217 0 z m 261 1240 l 372 1118 l 472 1118 l 261 1344 l 49 1118 l 149 1118 z "},"Ź":{"ha":426,"x_min":0,"x_max":0,"o":"m 367 0 l 367 83 l 172 83 l 367 1082 l 60 1082 l 60 994 l 265 994 l 60 0 z m 226 1118 l 389 1344 l 292 1344 l 136 1118 z "},"Ż":{"ha":426,"x_min":0,"x_max":0,"o":"m 367 0 l 367 83 l 172 83 l 367 1082 l 60 1082 l 60 994 l 265 994 l 60 0 z m 219 1151 b 274 1215 256 1151 274 1171 b 219 1279 274 1256 256 1279 b 168 1215 186 1279 168 1256 b 219 1151 168 1171 186 1151 z "},"Ž":{"ha":426,"x_min":0,"x_max":0,"o":"m 367 0 l 367 83 l 172 83 l 367 1082 l 60 1082 l 60 994 l 265 994 l 60 0 z m 226 1222 l 115 1344 l 15 1344 l 226 1118 l 439 1344 l 339 1344 z "},"Ǝ":{"ha":386,"x_min":0,"x_max":0,"o":"m 60 1082 l 60 999 l 207 999 l 207 811 l 75 811 l 75 744 l 207 744 l 207 88 l 72 88 l 72 0 l 296 0 l 296 1082 z "},"Ə":{"ha":506,"x_min":0,"x_max":0,"o":"m 443 543 b 233 1097 443 933 372 1097 b 153 1076 190 1097 167 1089 l 153 988 b 225 1011 168 1000 189 1011 b 354 543 310 1011 354 876 b 347 338 354 467 351 397 l 69 338 b 253 -15 90 86 156 -15 b 443 543 372 -15 443 151 z m 253 71 b 163 271 208 71 178 139 l 340 271 b 253 71 325 143 296 71 z "},"Ƒ":{"ha":385,"x_min":0,"x_max":0,"o":"m 185 271 l 317 271 l 317 338 l 185 338 l 185 994 l 326 994 l 326 1082 l 96 1082 l 96 -14 b -92 -322 96 -150 26 -251 l 19 -322 b 185 -14 86 -289 185 -171 z "},"ƒ":{"ha":529,"x_min":0,"x_max":0,"o":"m 71 -108 b 265 68 188 -108 250 -74 l 333 756 l 461 756 l 461 829 l 342 829 l 349 903 b 454 1003 354 972 393 1003 l 494 1003 l 494 1082 l 460 1082 b 265 906 342 1082 278 1046 l 258 829 l 139 829 l 139 756 l 249 756 l 181 81 b 68 -29 174 0 133 -29 l 35 -29 l 35 -108 z "},"Ɣ":{"ha":503,"x_min":0,"x_max":0,"o":"m 253 -228 b 379 -56 349 -228 379 -135 b 279 115 379 13 354 99 l 464 1082 l 375 1082 l 254 390 l 249 390 l 132 1082 l 39 1082 l 217 113 b 124 -56 147 92 124 10 b 253 -228 124 -135 156 -228 z m 253 -164 b 192 -56 215 -164 192 -108 b 253 53 192 -6 215 53 b 313 -56 289 53 313 -6 b 253 -164 313 -108 289 -164 z "},"Ɲ":{"ha":543,"x_min":0,"x_max":0,"o":"m 447 -50 l 447 1082 l 365 1082 l 365 397 l 360 397 l 96 1132 l 96 -14 b -83 -322 96 -150 29 -251 l 24 -322 b 181 -14 86 -289 181 -171 l 181 647 l 186 647 z "},"Ơ":{"ha":506,"x_min":0,"x_max":0,"o":"m 418 1235 b 431 1163 426 1218 431 1190 b 368 1082 431 1107 414 1082 l 307 1082 b 253 1096 290 1090 272 1096 b 63 531 133 1096 63 921 b 253 -15 63 139 133 -15 b 443 531 372 -15 443 139 b 342 1053 443 810 406 979 l 375 1053 b 519 1169 479 1053 519 1100 b 507 1235 519 1194 514 1224 z m 151 531 b 253 1008 151 821 185 1008 b 354 531 321 1008 354 821 b 253 71 354 240 321 71 b 151 531 185 71 151 240 z "},"Ư":{"ha":561,"x_min":0,"x_max":0,"o":"m 474 1235 b 486 1163 482 1218 486 1190 b 432 1082 486 1107 469 1082 l 379 1082 l 379 351 b 281 75 379 165 356 75 b 182 351 207 75 182 165 l 182 1082 l 92 1082 l 92 356 b 281 -14 92 125 139 -14 b 469 356 424 -14 469 125 l 469 1054 b 575 1169 543 1063 575 1107 b 563 1235 575 1194 569 1224 z "},"Ǧ":{"ha":463,"x_min":0,"x_max":0,"o":"m 306 600 l 306 97 b 258 83 297 89 278 83 b 151 540 185 83 151 250 b 281 1010 151 875 196 1010 b 353 986 317 1010 338 1000 l 353 1075 b 272 1097 339 1089 315 1097 b 63 540 133 1097 63 932 b 260 0 63 150 133 0 b 383 57 307 0 358 26 l 383 600 z m 258 1222 l 147 1344 l 47 1344 l 258 1118 l 471 1344 l 371 1344 z "},"Ǵ":{"ha":463,"x_min":0,"x_max":0,"o":"m 306 600 l 306 97 b 258 83 297 89 278 83 b 151 540 185 83 151 250 b 281 1010 151 875 196 1010 b 353 986 317 1010 338 1000 l 353 1075 b 272 1097 339 1089 315 1097 b 63 540 133 1097 63 932 b 260 0 63 150 133 0 b 383 57 307 0 358 26 l 383 600 z m 264 1118 l 426 1344 l 329 1344 l 174 1118 z "},"Ǹ":{"ha":543,"x_min":0,"x_max":0,"o":"m 447 -50 l 447 1082 l 365 1082 l 365 397 l 360 397 l 96 1132 l 96 0 l 181 0 l 181 647 l 186 647 z m 356 1118 l 200 1344 l 103 1344 l 265 1118 z "},"Ț":{"ha":371,"x_min":0,"x_max":0,"o":"m 231 0 l 231 994 l 343 994 l 343 1082 l 28 1082 l 28 994 l 143 994 l 143 0 z m 188 -181 b 125 -322 165 -247 142 -300 l 181 -322 b 244 -108 210 -274 244 -167 b 183 -36 244 -61 225 -36 b 125 -108 144 -36 125 -61 b 188 -181 125 -158 144 -181 z "},"Ɍ":{"ha":532,"x_min":0,"x_max":0,"o":"m 183 269 l 189 271 b 400 0 253 157 339 36 l 546 0 b 244 308 460 43 342 164 b 429 689 365 397 429 507 b 96 1090 429 899 344 1083 l 96 347 l 4 347 l 4 274 l 96 274 l 96 0 l 183 0 z m 183 350 l 183 996 b 342 674 293 968 342 821 b 183 350 342 522 290 428 z "},"ʔ":{"ha":382,"x_min":0,"x_max":0,"o":"m 113 0 l 201 0 l 201 328 b 321 840 201 521 321 571 b 128 1097 321 999 249 1097 b 53 1075 86 1097 64 1083 l 53 986 b 117 1010 61 999 89 1010 b 235 831 190 1010 235 956 b 113 328 235 606 113 533 z "},"ˆ":{"ha":525,"x_min":0,"x_max":0,"o":"m 263 1240 l 374 1118 l 474 1118 l 263 1344 l 50 1118 l 150 1118 z "},"ˇ":{"ha":525,"x_min":0,"x_max":0,"o":"m 261 1222 l 150 1344 l 50 1344 l 261 1118 l 474 1344 l 374 1344 z "},"˘":{"ha":493,"x_min":0,"x_max":0,"o":"m 360 1344 b 247 1168 346 1231 324 1168 b 135 1344 169 1168 147 1231 l 50 1344 b 247 1118 64 1203 115 1118 b 442 1344 378 1118 431 1203 z "},"˙":{"ha":151,"x_min":0,"x_max":0,"o":"m 74 1151 b 128 1215 110 1151 128 1171 b 74 1279 128 1256 110 1279 b 22 1215 40 1279 22 1256 b 74 1151 22 1171 40 1151 z "},"˚":{"ha":300,"x_min":0,"x_max":0,"o":"m 150 1088 b 276 1215 246 1088 276 1157 b 150 1344 276 1272 246 1344 b 22 1215 54 1344 22 1272 b 150 1088 22 1157 54 1088 z m 150 1135 b 90 1215 114 1135 90 1176 b 150 1296 90 1253 114 1296 b 210 1215 186 1296 210 1253 b 150 1135 210 1176 186 1135 z "},"˛":{"ha":333,"x_min":0,"x_max":0,"o":"m 310 -215 b 201 -235 285 -228 253 -235 b 97 -153 129 -235 97 -212 b 310 0 97 -67 175 -25 l 221 0 b 22 -183 128 -12 22 -61 b 197 -322 22 -281 97 -322 b 310 -300 249 -322 293 -312 z "},"˜":{"ha":426,"x_min":0,"x_max":0,"o":"m 403 1278 b 307 1228 378 1244 350 1228 b 122 1282 239 1228 189 1282 b 22 1240 83 1282 49 1267 l 22 1161 b 119 1213 49 1196 76 1213 b 304 1158 188 1213 238 1158 b 403 1199 343 1158 378 1172 z "},"˝":{"ha":517,"x_min":0,"x_max":0,"o":"m 331 1118 l 493 1344 l 396 1344 l 240 1118 z m 113 1118 l 275 1344 l 178 1344 l 22 1118 z "},"̀":{"ha":0,"x_min":0,"x_max":0,"o":"m -186 1118 l -342 1344 l -439 1344 l -276 1118 z "},"́":{"ha":0,"x_min":0,"x_max":0,"o":"m -265 1118 l -103 1344 l -200 1344 l -356 1118 z "},"̂":{"ha":0,"x_min":0,"x_max":0,"o":"m -271 1240 l -160 1118 l -60 1118 l -271 1344 l -483 1118 l -383 1118 z "},"̃":{"ha":0,"x_min":0,"x_max":0,"o":"m -79 1278 b -175 1228 -104 1244 -132 1228 b -360 1282 -243 1228 -293 1282 b -460 1240 -399 1282 -433 1267 l -460 1161 b -362 1213 -433 1196 -406 1213 b -178 1158 -294 1213 -244 1158 b -79 1199 -139 1158 -104 1172 z "},"̄":{"ha":0,"x_min":0,"x_max":0,"o":"m -81 1183 l -81 1251 l -461 1251 l -461 1183 z "},"̆":{"ha":0,"x_min":0,"x_max":0,"o":"m -157 1344 b -269 1168 -171 1231 -193 1168 b -382 1344 -347 1168 -369 1231 l -467 1344 b -269 1118 -453 1203 -401 1118 b -75 1344 -139 1118 -86 1203 z "},"̇":{"ha":0,"x_min":0,"x_max":0,"o":"m -272 1151 b -218 1215 -236 1151 -218 1171 b -272 1279 -218 1256 -236 1279 b -324 1215 -306 1279 -324 1256 b -272 1151 -324 1171 -306 1151 z "},"̈":{"ha":0,"x_min":0,"x_max":0,"o":"m -161 1151 b -108 1215 -126 1151 -108 1171 b -161 1279 -108 1256 -126 1279 b -214 1215 -194 1279 -214 1256 b -161 1151 -214 1171 -194 1151 z m -381 1151 b -328 1215 -344 1151 -328 1171 b -381 1279 -328 1256 -344 1279 b -432 1215 -414 1279 -432 1256 b -381 1151 -432 1171 -414 1151 z "},"̉":{"ha":0,"x_min":0,"x_max":0,"o":"m -260 1113 b -165 1258 -258 1183 -165 1183 b -289 1344 -165 1308 -207 1344 b -362 1331 -321 1344 -349 1339 l -362 1257 b -308 1271 -350 1265 -340 1271 b -253 1242 -264 1271 -253 1260 b -322 1113 -253 1197 -321 1196 z "},"̊":{"ha":0,"x_min":0,"x_max":0,"o":"m -269 1088 b -143 1215 -174 1088 -143 1157 b -269 1344 -143 1272 -174 1344 b -397 1215 -365 1344 -397 1272 b -269 1088 -397 1157 -365 1088 z m -269 1135 b -329 1215 -306 1135 -329 1176 b -269 1296 -329 1253 -306 1296 b -210 1215 -233 1296 -210 1253 b -269 1135 -210 1176 -233 1135 z "},"̋":{"ha":0,"x_min":0,"x_max":0,"o":"m -157 1118 l 6 1344 l -92 1344 l -247 1118 z m -375 1118 l -212 1344 l -310 1344 l -465 1118 z "},"̌":{"ha":0,"x_min":0,"x_max":0,"o":"m -271 1222 l -382 1344 l -482 1344 l -271 1118 l -58 1344 l -158 1344 z "},"̓":{"ha":0,"x_min":0,"x_max":0,"o":"m -274 1225 b -211 1344 -251 1282 -229 1325 l -268 1344 b -332 1165 -297 1303 -332 1214 b -271 1104 -332 1125 -311 1104 b -211 1165 -232 1104 -211 1125 b -274 1225 -211 1207 -232 1225 z "},"̛":{"ha":0,"x_min":0,"x_max":0,"o":"m -10 1128 b 3 1056 -1 1111 3 1083 b -51 975 3 1000 -14 975 l -100 975 l -100 946 l -42 946 b 92 1063 51 946 92 993 b 79 1128 92 1088 86 1117 z "},"̣":{"ha":0,"x_min":0,"x_max":0,"o":"m -272 -222 b -218 -158 -236 -222 -218 -203 b -272 -94 -218 -118 -236 -94 b -324 -158 -306 -94 -324 -118 b -272 -222 -324 -203 -306 -222 z "},"̦":{"ha":0,"x_min":0,"x_max":0,"o":"m -268 -181 b -331 -322 -290 -247 -314 -300 l -275 -322 b -211 -108 -246 -274 -211 -167 b -272 -36 -211 -61 -231 -36 b -331 -108 -311 -36 -331 -61 b -268 -181 -331 -158 -311 -181 z "},"̧":{"ha":0,"x_min":0,"x_max":0,"o":"m -268 -181 b -331 -322 -290 -247 -314 -300 l -275 -322 b -211 -108 -246 -274 -211 -167 b -272 -36 -211 -61 -231 -36 b -331 -108 -311 -36 -331 -61 b -268 -181 -331 -158 -311 -181 z "},"̨":{"ha":0,"x_min":0,"x_max":0,"o":"m -128 -215 b -236 -235 -153 -228 -185 -235 b -340 -153 -308 -235 -340 -212 b -128 0 -340 -67 -262 -25 l -217 0 b -415 -183 -310 -12 -415 -61 b -240 -322 -415 -281 -340 -322 b -128 -300 -189 -322 -144 -312 z "},"̭":{"ha":0,"x_min":0,"x_max":0,"o":"m -271 -154 l -160 -276 l -60 -276 l -271 -50 l -483 -276 l -383 -276 z "},"΄":{"ha":60,"x_min":0,"x_max":0,"o":"m 89 814 l 89 1082 l 0 1082 l 32 814 z "},"Ά":{"ha":518,"x_min":0,"x_max":0,"o":"m 89 814 l 89 1082 l 0 1082 l 32 814 z m 390 0 l 479 0 l 272 1132 l 56 0 l 142 0 l 189 271 l 343 271 z m 264 701 l 269 701 l 332 338 l 200 338 z "},"·":{"ha":190,"x_min":0,"x_max":0,"o":"m 94 611 b 156 682 135 611 156 632 b 94 754 156 729 135 754 b 35 682 56 754 35 729 b 94 611 35 632 56 611 z "},"Έ":{"ha":446,"x_min":0,"x_max":0,"o":"m 89 814 l 89 1082 l 0 1082 l 32 814 z m 392 0 l 392 83 l 244 83 l 244 271 l 376 271 l 376 338 l 244 338 l 244 994 l 379 994 l 379 1082 l 156 1082 l 156 0 z "},"Ή":{"ha":600,"x_min":0,"x_max":0,"o":"m 89 814 l 89 1082 l 0 1082 l 32 814 z m 504 0 l 504 1082 l 414 1082 l 414 338 l 244 338 l 244 1082 l 156 1082 l 156 0 l 244 0 l 244 271 l 414 271 l 414 0 z "},"Ί":{"ha":340,"x_min":0,"x_max":0,"o":"m 89 814 l 89 1082 l 0 1082 l 32 814 z m 244 0 l 244 1082 l 156 1082 l 156 0 z "},"Ό":{"ha":546,"x_min":0,"x_max":0,"o":"m 89 814 l 89 1082 l 0 1082 l 32 814 z m 483 531 b 293 1096 483 921 413 1096 b 103 531 174 1096 103 921 b 293 -15 103 139 174 -15 b 483 531 413 -15 483 139 z m 192 531 b 293 1008 192 821 225 1008 b 394 531 361 1008 394 821 b 293 71 394 240 361 71 b 192 531 225 71 192 240 z "},"Ύ":{"ha":596,"x_min":0,"x_max":0,"o":"m 89 814 l 89 1082 l 0 1082 l 32 814 z m 382 0 l 382 479 l 563 1082 l 482 1082 l 344 601 l 339 601 l 200 1082 l 110 1082 l 293 479 l 293 0 z "},"Ώ":{"ha":624,"x_min":0,"x_max":0,"o":"m 89 814 l 89 1082 l 0 1082 l 32 814 z m 332 1097 b 103 649 171 1097 103 903 b 221 83 103 440 149 253 l 117 83 l 117 0 l 322 0 b 197 660 244 147 197 407 b 332 1010 197 867 229 1010 b 467 660 435 1010 467 867 b 342 0 467 407 419 147 l 547 0 l 547 83 l 443 83 b 561 646 519 261 561 444 b 332 1097 561 904 493 1097 z "},"Γ":{"ha":365,"x_min":0,"x_max":0,"o":"m 96 1082 l 96 0 l 185 0 l 185 999 l 338 999 l 338 1082 z "},"Δ":{"ha":501,"x_min":0,"x_max":0,"o":"m 463 0 l 256 1132 l 39 0 z m 247 701 l 253 701 l 358 83 l 139 83 z "},"Θ":{"ha":506,"x_min":0,"x_max":0,"o":"m 185 271 l 319 271 l 319 338 l 185 338 z m 443 531 b 253 1096 443 921 372 1096 b 63 531 133 1096 63 921 b 253 -15 63 139 133 -15 b 443 531 372 -15 443 139 z m 151 531 b 253 1008 151 821 185 1008 b 354 531 321 1008 354 821 b 253 71 354 240 321 71 b 151 531 185 71 151 240 z "},"Λ":{"ha":540,"x_min":0,"x_max":0,"o":"m 389 0 l 482 0 l 274 1132 l 57 0 l 146 0 l 267 692 l 272 692 z "},"Ξ":{"ha":386,"x_min":0,"x_max":0,"o":"m 332 0 l 332 83 l 54 83 l 54 0 z m 319 994 l 319 1082 l 67 1082 l 67 994 z m 317 271 l 317 338 l 69 338 l 69 271 z "},"O":{"ha":506,"x_min":0,"x_max":0,"o":"m 443 531 b 253 1096 443 921 372 1096 b 63 531 133 1096 63 921 b 253 -15 63 139 133 -15 b 443 531 372 -15 443 139 z m 151 531 b 253 1008 151 821 185 1008 b 354 531 321 1008 354 821 b 253 71 354 240 321 71 b 151 531 185 71 151 240 z "},"Π":{"ha":540,"x_min":0,"x_max":0,"o":"m 444 0 l 444 1082 l 96 1082 l 96 0 l 185 0 l 185 1015 l 354 1015 l 354 0 z "},"Σ":{"ha":378,"x_min":0,"x_max":0,"o":"m 251 299 l 128 994 l 339 994 l 339 1082 l 32 1082 l 169 294 l 28 0 l 335 0 l 335 83 l 147 83 z "},"Φ":{"ha":567,"x_min":0,"x_max":0,"o":"m 424 532 b 325 185 424 346 389 221 l 325 893 b 424 532 389 854 424 719 z m 143 532 b 242 893 143 719 178 854 l 242 185 b 143 532 178 221 143 346 z m 328 0 l 328 104 b 508 532 442 129 508 251 b 328 975 508 813 442 947 l 328 1082 l 239 1082 l 239 975 b 58 532 124 947 58 813 b 239 104 58 251 124 129 l 239 0 z "},"Ψ":{"ha":561,"x_min":0,"x_max":0,"o":"m 325 0 l 325 103 b 503 468 439 129 503 263 l 503 1082 l 415 1082 l 415 464 b 325 193 415 313 383 221 l 325 1082 l 236 1082 l 236 193 b 146 464 178 221 146 313 l 146 1082 l 58 1082 l 58 468 b 236 103 58 263 122 129 l 236 0 z "},"Ω":{"ha":583,"x_min":0,"x_max":0,"o":"m 292 1097 b 63 649 131 1097 63 903 b 181 83 63 440 108 253 l 76 83 l 76 0 l 282 0 b 157 660 204 147 157 407 b 292 1010 157 867 189 1010 b 426 660 394 1010 426 867 b 301 0 426 407 379 147 l 507 0 l 507 83 l 403 83 b 521 646 479 261 521 444 b 292 1097 521 904 453 1097 z "},"A":{"ha":501,"x_min":0,"x_max":0,"o":"m 374 0 l 463 0 l 256 1132 l 39 0 l 125 0 l 172 271 l 326 271 z m 247 701 l 253 701 l 315 338 l 183 338 z "},"M":{"ha":644,"x_min":0,"x_max":0,"o":"m 549 0 l 549 1132 l 324 414 l 318 414 l 96 1132 l 96 0 l 174 0 l 174 610 l 179 610 l 321 158 l 465 610 l 471 610 l 471 0 z "},"Ђ":{"ha":571,"x_min":0,"x_max":0,"o":"m 319 818 b 233 804 282 818 254 814 l 233 999 l 475 999 l 475 1082 l 28 1082 l 28 999 l 143 999 l 143 0 l 233 0 l 233 714 b 318 729 250 726 278 729 b 406 453 381 729 406 640 l 406 -14 b 218 -322 406 -150 336 -251 l 329 -322 b 496 -14 396 -289 496 -171 l 496 449 b 319 818 496 679 447 818 z "},"Ѓ":{"ha":365,"x_min":0,"x_max":0,"o":"m 96 1082 l 96 0 l 185 0 l 185 999 l 338 999 l 338 1082 z m 215 1118 l 378 1344 l 281 1344 l 125 1118 z "},"Є":{"ha":411,"x_min":0,"x_max":0,"o":"m 63 540 b 272 -14 63 150 133 -14 b 353 7 315 -14 339 -6 l 353 96 b 281 72 338 83 317 72 b 164 271 224 72 183 132 l 319 271 l 319 338 l 156 338 b 149 540 151 394 149 461 b 281 1010 149 875 196 1010 b 353 986 317 1010 338 1000 l 353 1075 b 272 1097 339 1089 315 1097 b 63 540 133 1097 63 932 z "},"Љ":{"ha":667,"x_min":0,"x_max":0,"o":"m 357 1082 l 242 1082 l 56 0 l 144 0 l 265 790 l 271 790 l 271 -7 b 610 406 525 0 610 188 b 358 832 610 617 522 736 z m 358 751 b 519 421 467 671 519 572 b 358 89 519 267 471 118 z "},"Њ":{"ha":753,"x_min":0,"x_max":0,"o":"m 694 404 b 443 831 694 615 607 735 l 443 1082 l 354 1082 l 354 338 l 185 338 l 185 1082 l 96 1082 l 96 0 l 185 0 l 185 271 l 354 271 l 354 -8 b 694 404 600 8 694 179 z m 443 750 b 604 419 551 669 604 571 b 443 88 604 265 556 117 z "},"Ћ":{"ha":571,"x_min":0,"x_max":0,"o":"m 319 818 b 233 804 282 818 254 814 l 233 999 l 475 999 l 475 1082 l 28 1082 l 28 999 l 143 999 l 143 0 l 233 0 l 233 714 b 318 729 250 726 278 729 b 406 453 381 729 406 640 l 406 0 l 496 0 l 496 449 b 319 818 496 679 447 818 z "},"Ќ":{"ha":532,"x_min":0,"x_max":0,"o":"m 546 0 b 218 353 435 54 276 247 l 497 1082 l 407 1082 l 189 494 l 183 494 l 183 1082 l 96 1082 l 96 0 l 183 0 l 183 263 l 186 269 b 400 0 250 156 340 36 z m 271 1118 l 433 1344 l 336 1344 l 181 1118 z "},"Ѝ":{"ha":540,"x_min":0,"x_max":0,"o":"m 444 0 l 444 1082 l 354 1082 l 190 282 l 185 282 l 185 1082 l 96 1082 l 96 0 l 185 0 l 349 800 l 354 800 l 354 0 z m 354 1118 l 199 1344 l 101 1344 l 264 1118 z "},"Ў":{"ha":507,"x_min":0,"x_max":0,"o":"m 474 1082 l 386 1082 l 258 563 l 253 563 l 125 1082 l 33 1082 l 213 406 l 108 0 l 197 0 z m 367 1344 b 254 1168 353 1231 331 1168 b 142 1344 176 1168 154 1231 l 57 1344 b 254 1118 71 1203 122 1118 b 449 1344 385 1118 438 1203 z "},"Џ":{"ha":540,"x_min":0,"x_max":0,"o":"m 308 -196 l 308 0 l 444 0 l 444 1082 l 354 1082 l 354 83 l 185 83 l 185 1082 l 96 1082 l 96 0 l 231 0 l 231 -196 z "},"Б":{"ha":493,"x_min":0,"x_max":0,"o":"m 338 1082 l 96 1082 l 96 -8 b 435 404 346 10 435 175 b 183 831 435 615 347 735 l 183 999 l 338 999 z m 183 750 b 344 419 292 669 344 571 b 183 88 344 265 296 117 z "},"Д":{"ha":553,"x_min":0,"x_max":0,"o":"m 89 -196 l 89 0 l 464 0 l 464 -196 l 542 -196 l 542 83 l 474 83 l 281 1132 l 79 83 l 11 83 l 11 -196 z m 274 692 l 279 692 l 382 83 l 167 83 z "},"Ж":{"ha":694,"x_min":0,"x_max":0,"o":"m 125 0 b 301 269 175 39 246 156 l 304 263 l 304 0 l 390 0 l 390 263 l 393 269 b 569 0 449 156 519 39 l 703 0 b 428 353 607 61 478 247 l 669 1082 l 579 1082 l 394 494 l 390 494 l 390 1082 l 304 1082 l 304 494 l 300 494 l 115 1082 l 25 1082 l 267 353 b -8 0 217 247 88 61 z "},"З":{"ha":383,"x_min":0,"x_max":0,"o":"m 136 1097 b 58 1075 108 1097 76 1093 l 58 986 b 126 1010 76 1003 101 1010 b 276 696 228 1010 276 901 b 118 344 276 518 240 388 l 118 283 b 261 179 218 283 261 243 b 135 72 261 125 231 72 b 58 96 107 72 82 76 l 58 7 b 136 -14 75 -7 99 -14 b 347 178 282 -14 347 90 b 213 331 347 251 300 317 l 213 335 b 364 711 310 392 364 496 b 136 1097 364 942 301 1097 z "},"И":{"ha":540,"x_min":0,"x_max":0,"o":"m 444 0 l 444 1082 l 354 1082 l 190 282 l 185 282 l 185 1082 l 96 1082 l 96 0 l 185 0 l 349 800 l 354 800 l 354 0 z "},"Й":{"ha":540,"x_min":0,"x_max":0,"o":"m 444 0 l 444 1082 l 354 1082 l 190 282 l 185 282 l 185 1082 l 96 1082 l 96 0 l 185 0 l 349 800 l 354 800 l 354 0 z m 383 1344 b 271 1168 369 1231 347 1168 b 158 1344 193 1168 171 1231 l 74 1344 b 271 1118 88 1203 139 1118 b 465 1344 401 1118 454 1203 z "},"Л":{"ha":540,"x_min":0,"x_max":0,"o":"m 389 0 l 482 0 l 274 1132 l 57 0 l 146 0 l 267 692 l 272 692 z "},"У":{"ha":507,"x_min":0,"x_max":0,"o":"m 474 1082 l 386 1082 l 258 563 l 253 563 l 125 1082 l 33 1082 l 213 406 l 108 0 l 197 0 z "},"Ц":{"ha":522,"x_min":0,"x_max":0,"o":"m 511 -196 l 511 83 l 444 83 l 444 1082 l 354 1082 l 354 83 l 185 83 l 185 1082 l 96 1082 l 96 0 l 433 0 l 433 -196 z "},"Ч":{"ha":524,"x_min":0,"x_max":0,"o":"m 251 264 b 338 276 289 264 315 268 l 338 0 l 428 0 l 428 1082 l 338 1082 l 338 367 b 253 353 319 356 293 353 b 165 629 190 353 165 442 l 165 1082 l 75 1082 l 75 633 b 251 264 75 403 124 264 z "},"Ш":{"ha":731,"x_min":0,"x_max":0,"o":"m 635 0 l 635 1082 l 546 1082 l 546 83 l 410 83 l 410 1082 l 321 1082 l 321 83 l 185 83 l 185 1082 l 96 1082 l 96 0 z "},"Щ":{"ha":713,"x_min":0,"x_max":0,"o":"m 701 -196 l 701 83 l 635 83 l 635 1082 l 546 1082 l 546 83 l 410 83 l 410 1082 l 321 1082 l 321 83 l 185 83 l 185 1082 l 96 1082 l 96 0 l 624 0 l 624 -196 z "},"Ъ":{"ha":540,"x_min":0,"x_max":0,"o":"m 231 1082 l 28 1082 l 28 999 l 143 999 l 143 -8 b 482 404 397 -1 482 186 b 231 831 482 615 394 735 z m 231 750 b 392 419 339 669 392 571 b 231 88 392 265 343 117 z "},"Ы":{"ha":717,"x_min":0,"x_max":0,"o":"m 183 750 b 344 419 292 669 344 571 b 183 88 344 265 296 117 z m 183 1082 l 96 1082 l 96 -8 b 435 404 350 -1 435 186 b 183 831 435 615 347 735 z m 621 0 l 621 1082 l 532 1082 l 532 0 z "},"Ь":{"ha":493,"x_min":0,"x_max":0,"o":"m 183 750 b 344 419 292 669 344 571 b 183 88 344 265 296 117 z m 183 1082 l 96 1082 l 96 -8 b 435 404 350 -1 435 186 b 183 831 435 615 347 735 z "},"Э":{"ha":411,"x_min":0,"x_max":0,"o":"m 349 540 b 139 1097 349 932 278 1097 b 58 1075 96 1097 72 1089 l 58 986 b 131 1010 74 1000 94 1010 b 263 540 215 1010 263 875 b 254 338 263 461 260 394 l 92 338 l 92 271 l 247 271 b 131 72 226 132 186 72 b 58 96 94 72 74 83 l 58 7 b 139 -14 72 -6 96 -14 b 349 540 278 -14 349 150 z "},"Ю":{"ha":724,"x_min":0,"x_max":0,"o":"m 185 0 l 185 271 l 301 271 b 471 -15 328 74 388 -15 b 661 531 590 -15 661 139 b 471 1096 661 921 590 1096 b 286 531 351 1096 286 921 b 293 338 286 458 289 394 l 185 338 l 185 1082 l 96 1082 l 96 0 z m 369 531 b 471 1008 369 821 403 1008 b 572 531 539 1008 572 821 b 471 71 572 240 539 71 b 369 531 403 71 369 240 z "},"Я":{"ha":499,"x_min":0,"x_max":0,"o":"m 315 0 l 403 0 l 403 1090 b 60 690 154 1083 60 899 b 254 279 60 507 133 368 b 25 0 179 151 113 76 l 150 0 b 310 242 206 56 268 153 l 315 240 z m 315 321 b 147 674 208 399 147 522 b 315 996 147 821 206 968 z "},"I":{"ha":281,"x_min":0,"x_max":0,"o":"m 185 0 l 185 1082 l 96 1082 l 96 0 z "},"Ґ":{"ha":365,"x_min":0,"x_max":0,"o":"m 96 1082 l 96 0 l 185 0 l 185 999 l 338 999 l 338 1278 l 260 1278 l 260 1082 z "},"Ғ":{"ha":401,"x_min":0,"x_max":0,"o":"m 379 271 l 379 339 l 221 339 l 221 999 l 374 999 l 374 1082 l 132 1082 l 132 339 l 10 339 l 10 271 l 132 271 l 132 0 l 221 0 l 221 271 z "},"Җ":{"ha":728,"x_min":0,"x_max":0,"o":"m 717 -196 l 717 83 l 610 83 b 428 353 536 165 463 279 l 669 1082 l 579 1082 l 394 494 l 390 494 l 390 1082 l 304 1082 l 304 494 l 300 494 l 115 1082 l 25 1082 l 267 353 b -8 0 217 247 88 61 l 125 0 b 301 269 175 39 246 156 l 304 263 l 304 0 l 390 0 l 390 263 l 393 269 b 569 0 449 156 519 39 l 639 0 l 639 -196 z "},"Ҙ":{"ha":383,"x_min":0,"x_max":0,"o":"m 136 1097 b 58 1075 108 1097 76 1093 l 58 986 b 126 1010 76 1003 101 1010 b 276 696 228 1010 276 901 b 118 344 276 518 240 388 l 118 283 b 261 179 218 283 261 243 b 135 72 261 125 231 72 b 58 96 107 72 82 76 l 58 7 b 136 -14 75 -7 99 -14 b 158 -12 143 -14 151 -14 b 181 -135 172 -58 181 -99 b 69 -322 181 -207 150 -265 l 181 -322 b 251 -161 231 -278 251 -219 b 206 -4 251 -107 233 -51 b 347 178 303 22 347 106 b 213 331 347 251 300 317 l 213 335 b 364 711 310 392 364 496 b 136 1097 364 942 301 1097 z "},"Қ":{"ha":568,"x_min":0,"x_max":0,"o":"m 557 -196 l 557 83 l 433 83 b 218 353 346 165 258 279 l 497 1082 l 407 1082 l 189 494 l 183 494 l 183 1082 l 96 1082 l 96 0 l 183 0 l 183 263 l 186 269 b 400 0 250 156 340 36 l 479 0 l 479 -196 z "},"Ҡ":{"ha":579,"x_min":0,"x_max":0,"o":"m 593 0 b 265 353 482 54 324 247 l 544 1082 l 454 1082 l 236 494 l 231 494 l 231 1082 l 28 1082 l 28 999 l 143 999 l 143 0 l 231 0 l 231 263 l 233 269 b 447 0 297 156 388 36 z "},"Ң":{"ha":522,"x_min":0,"x_max":0,"o":"m 511 -196 l 511 83 l 444 83 l 444 1082 l 354 1082 l 354 338 l 185 338 l 185 1082 l 96 1082 l 96 0 l 185 0 l 185 271 l 354 271 l 354 0 l 433 0 l 433 -196 z "},"Ҫ":{"ha":411,"x_min":0,"x_max":0,"o":"m 63 540 b 251 -12 63 169 126 3 b 274 -135 265 -58 274 -97 b 163 -322 274 -207 243 -265 l 274 -322 b 344 -161 324 -278 344 -219 b 303 -12 344 -110 328 -58 b 353 7 326 -10 342 -1 l 353 96 b 281 72 338 83 317 72 b 151 540 196 72 151 207 b 281 1010 151 875 196 1010 b 353 986 317 1010 338 1000 l 353 1075 b 272 1097 339 1089 315 1097 b 63 540 133 1097 63 932 z "},"Y":{"ha":519,"x_min":0,"x_max":0,"o":"m 306 0 l 306 479 l 486 1082 l 406 1082 l 268 601 l 263 601 l 124 1082 l 33 1082 l 217 479 l 217 0 z "},"Ұ":{"ha":519,"x_min":0,"x_max":0,"o":"m 306 0 l 306 451 l 450 451 l 450 519 l 317 519 l 486 1082 l 406 1082 l 268 601 l 263 601 l 124 1082 l 33 1082 l 204 519 l 69 519 l 69 451 l 217 451 l 217 0 z "},"Ҳ":{"ha":531,"x_min":0,"x_max":0,"o":"m 519 -196 l 519 83 l 456 83 l 307 593 l 458 1082 l 375 1082 l 265 700 l 260 700 l 153 1082 l 65 1082 l 210 585 l 28 0 l 115 0 l 253 471 l 258 471 l 386 0 l 442 0 l 442 -196 z "},"Ҷ":{"ha":508,"x_min":0,"x_max":0,"o":"m 254 264 b 340 276 292 264 318 268 l 340 0 l 419 0 l 419 -196 l 497 -196 l 497 83 l 431 83 l 431 1082 l 340 1082 l 340 367 b 256 353 322 356 296 353 b 168 629 193 353 168 442 l 168 1082 l 78 1082 l 78 633 b 254 264 78 403 126 264 z "},"Һ":{"ha":524,"x_min":0,"x_max":0,"o":"m 272 818 b 186 804 235 818 207 814 l 186 1082 l 96 1082 l 96 0 l 186 0 l 186 714 b 271 729 203 726 231 729 b 358 453 333 729 358 640 l 358 0 l 449 0 l 449 449 b 272 818 449 679 400 818 z "},"Ӄ":{"ha":532,"x_min":0,"x_max":0,"o":"m 546 0 b 218 353 435 54 276 247 l 497 1082 l 407 1082 l 189 494 l 183 494 l 183 1082 l 96 1082 l 96 0 l 183 0 l 183 263 l 186 269 b 400 0 250 156 340 36 l 450 0 b 475 -135 465 -51 475 -94 b 364 -322 475 -207 444 -265 l 475 -322 b 546 -161 525 -278 546 -219 b 497 0 546 -104 526 -49 z "},"Ӈ":{"ha":540,"x_min":0,"x_max":0,"o":"m 444 0 l 444 1082 l 354 1082 l 354 338 l 185 338 l 185 1082 l 96 1082 l 96 0 l 185 0 l 185 271 l 354 271 l 354 0 l 382 0 b 407 -135 397 -51 407 -94 b 296 -322 407 -207 376 -265 l 407 -322 b 478 -161 457 -278 478 -219 b 429 0 478 -104 458 -49 z "},"Ӣ":{"ha":540,"x_min":0,"x_max":0,"o":"m 444 0 l 444 1082 l 354 1082 l 190 282 l 185 282 l 185 1082 l 96 1082 l 96 0 l 185 0 l 349 800 l 354 800 l 354 0 z m 460 1183 l 460 1251 l 79 1251 l 79 1183 z "},"Ө":{"ha":506,"x_min":0,"x_max":0,"o":"m 443 531 b 253 1096 443 921 372 1096 b 63 531 133 1096 63 921 b 253 -15 63 139 133 -15 b 443 531 372 -15 443 139 z m 151 531 b 253 1008 151 821 185 1008 b 354 531 321 1008 354 821 b 347 338 354 458 351 393 l 157 338 b 151 531 153 393 151 458 z m 253 71 b 164 271 208 71 179 142 l 342 271 b 253 71 326 142 296 71 z "},"Ӯ":{"ha":507,"x_min":0,"x_max":0,"o":"m 474 1082 l 386 1082 l 258 563 l 253 563 l 125 1082 l 33 1082 l 213 406 l 108 0 l 197 0 z m 443 1183 l 443 1251 l 63 1251 l 63 1183 z "},"Ԓ":{"ha":540,"x_min":0,"x_max":0,"o":"m 389 0 l 408 0 b 433 -135 424 -51 433 -94 b 322 -322 433 -207 403 -265 l 433 -322 b 504 -161 483 -278 504 -219 b 456 0 504 -104 485 -49 l 482 0 l 274 1132 l 57 0 l 146 0 l 267 692 l 272 692 z "},"֏":{"ha":488,"x_min":0,"x_max":0,"o":"m 76 347 l 76 279 l 307 279 l 307 0 l 397 0 l 397 279 l 457 279 l 457 347 l 397 347 l 397 418 l 457 418 l 457 486 l 397 486 l 397 726 b 208 1096 397 957 351 1096 b 35 726 67 1096 35 957 l 35 692 l 110 692 l 110 731 b 208 1007 110 917 135 1007 b 307 731 283 1007 307 917 l 307 486 l 76 486 l 76 418 l 307 418 l 307 347 z "},"Ḍ":{"ha":492,"x_min":0,"x_max":0,"o":"m 96 -7 b 429 540 344 0 429 250 b 96 1090 429 831 344 1082 z m 183 996 b 342 540 293 956 342 751 b 183 88 342 329 293 126 z m 217 -222 b 271 -158 253 -222 271 -203 b 217 -94 271 -118 253 -94 b 165 -158 183 -94 165 -118 b 217 -222 165 -203 183 -222 z "},"Ḓ":{"ha":492,"x_min":0,"x_max":0,"o":"m 96 -7 b 429 540 344 0 429 250 b 96 1090 429 831 344 1082 z m 183 996 b 342 540 293 956 342 751 b 183 88 342 329 293 126 z m 218 -154 l 329 -276 l 429 -276 l 218 -50 l 6 -276 l 106 -276 z "},"Ḥ":{"ha":540,"x_min":0,"x_max":0,"o":"m 444 0 l 444 1082 l 354 1082 l 354 338 l 185 338 l 185 1082 l 96 1082 l 96 0 l 185 0 l 185 271 l 354 271 l 354 0 z m 268 -222 b 322 -158 304 -222 322 -203 b 268 -94 322 -118 304 -94 b 217 -158 235 -94 217 -118 b 268 -222 217 -203 235 -222 z "},"Ḽ":{"ha":365,"x_min":0,"x_max":0,"o":"m 338 0 l 338 83 l 185 83 l 185 1082 l 96 1082 l 96 0 z m 211 -154 l 322 -276 l 422 -276 l 211 -50 l -1 -276 l 99 -276 z "},"Ṅ":{"ha":543,"x_min":0,"x_max":0,"o":"m 447 -50 l 447 1082 l 365 1082 l 365 397 l 360 397 l 96 1132 l 96 0 l 181 0 l 181 647 l 186 647 z m 269 1151 b 324 1215 306 1151 324 1171 b 269 1279 324 1256 306 1279 b 218 1215 236 1279 218 1256 b 269 1151 218 1171 236 1151 z "},"Ṋ":{"ha":543,"x_min":0,"x_max":0,"o":"m 447 -50 l 447 1082 l 365 1082 l 365 397 l 360 397 l 96 1132 l 96 0 l 181 0 l 181 647 l 186 647 z m 272 -154 l 383 -276 l 483 -276 l 272 -50 l 60 -276 l 160 -276 z "},"Ṛ":{"ha":532,"x_min":0,"x_max":0,"o":"m 183 269 l 189 271 b 400 0 253 157 339 36 l 546 0 b 244 308 460 43 342 164 b 429 689 365 397 429 507 b 96 1090 429 899 344 1083 l 96 0 l 183 0 z m 183 350 l 183 996 b 342 674 293 968 342 821 b 183 350 342 522 290 428 z m 264 -222 b 318 -158 300 -222 318 -203 b 264 -94 318 -118 300 -94 b 213 -158 231 -94 213 -118 b 264 -222 213 -203 231 -222 z "},"Ṣ":{"ha":438,"x_min":0,"x_max":0,"o":"m 74 7 b 154 -14 86 -4 111 -14 b 378 261 296 -14 378 94 b 303 504 378 368 344 435 b 192 675 261 572 225 614 b 147 840 165 724 147 769 b 263 1010 147 950 190 1010 b 329 986 294 1010 319 999 l 329 1075 b 253 1097 317 1083 296 1097 b 60 844 133 1097 60 996 b 124 622 60 754 86 685 b 247 424 156 568 211 494 b 288 261 271 376 288 331 b 143 72 288 144 242 72 b 74 96 110 72 92 81 z m 189 -222 b 243 -158 225 -222 243 -203 b 189 -94 243 -118 225 -94 b 138 -158 156 -94 138 -118 b 189 -222 138 -203 156 -222 z "},"Ṭ":{"ha":371,"x_min":0,"x_max":0,"o":"m 231 0 l 231 994 l 343 994 l 343 1082 l 28 1082 l 28 994 l 143 994 l 143 0 z m 183 -222 b 238 -158 219 -222 238 -203 b 183 -94 238 -118 219 -94 b 132 -158 150 -94 132 -118 b 183 -222 132 -203 150 -222 z "},"Ẁ":{"ha":836,"x_min":0,"x_max":0,"o":"m 469 1118 l 314 1344 l 217 1344 l 379 1118 l 415 1118 l 257 363 l 251 363 l 133 1082 l 39 1082 l 249 -50 l 414 711 l 419 711 l 571 -50 l 797 1082 l 710 1082 l 576 363 l 571 363 l 421 1118 z "},"Ẃ":{"ha":836,"x_min":0,"x_max":0,"o":"m 453 1118 l 615 1344 l 518 1344 l 363 1118 l 415 1118 l 257 363 l 251 363 l 133 1082 l 39 1082 l 249 -50 l 414 711 l 419 711 l 571 -50 l 797 1082 l 710 1082 l 576 363 l 571 363 l 421 1118 z "},"Ẅ":{"ha":836,"x_min":0,"x_max":0,"o":"m 571 -50 l 797 1082 l 710 1082 l 576 363 l 571 363 l 418 1132 l 257 363 l 251 363 l 133 1082 l 39 1082 l 249 -50 l 414 711 l 419 711 z m 526 1151 b 579 1215 561 1151 579 1171 b 526 1279 579 1256 561 1279 b 474 1215 493 1279 474 1256 b 526 1151 474 1171 493 1151 z m 307 1151 b 360 1215 343 1151 360 1171 b 307 1279 360 1256 343 1279 b 256 1215 274 1279 256 1256 b 307 1151 256 1171 274 1151 z "},"Ẓ":{"ha":426,"x_min":0,"x_max":0,"o":"m 367 0 l 367 83 l 172 83 l 367 1082 l 60 1082 l 60 994 l 265 994 l 60 0 z m 211 -222 b 265 -158 247 -222 265 -203 b 211 -94 265 -118 247 -94 b 160 -158 178 -94 160 -118 b 211 -222 160 -203 178 -222 z "},"ẞ":{"ha":632,"x_min":0,"x_max":0,"o":"m 450 994 l 340 704 b 469 413 429 704 469 607 b 335 72 469 208 425 72 b 268 96 313 72 288 81 l 268 7 b 343 -14 282 -6 311 -14 b 558 415 488 -14 558 150 b 442 754 558 608 521 700 l 575 1082 l 281 1082 b 92 713 138 1082 92 943 l 92 0 l 182 0 l 182 717 b 281 994 182 903 206 994 z "},"Ạ":{"ha":501,"x_min":0,"x_max":0,"o":"m 374 0 l 463 0 l 256 1132 l 39 0 l 125 0 l 172 271 l 326 271 z m 247 701 l 253 701 l 315 338 l 183 338 z m 249 -222 b 303 -158 285 -222 303 -203 b 249 -94 303 -118 285 -94 b 197 -158 215 -94 197 -118 b 249 -222 197 -203 215 -222 z "},"Ả":{"ha":501,"x_min":0,"x_max":0,"o":"m 283 1113 b 378 1258 285 1183 378 1183 b 254 1344 378 1308 336 1344 b 181 1331 222 1344 194 1339 l 181 1257 b 235 1271 193 1265 203 1271 b 290 1242 279 1271 290 1260 b 221 1113 290 1197 222 1196 l 251 1113 l 39 0 l 125 0 l 172 271 l 326 271 l 374 0 l 463 0 l 258 1113 z m 247 701 l 253 701 l 315 338 l 183 338 z "},"Ấ":{"ha":501,"x_min":0,"x_max":0,"o":"m 440 1178 l 569 1344 l 472 1344 l 371 1200 l 257 1322 l 65 1118 l 165 1118 l 257 1218 l 349 1118 l 447 1118 l 392 1178 z m 374 0 l 463 0 l 256 1132 l 39 0 l 125 0 l 172 271 l 326 271 z m 247 701 l 253 701 l 315 338 l 183 338 z "},"Ầ":{"ha":501,"x_min":0,"x_max":0,"o":"m 350 1118 l 450 1118 l 258 1322 l 146 1200 l 43 1344 l -54 1344 l 75 1178 l 124 1178 l 68 1118 l 167 1118 l 258 1218 z m 374 0 l 463 0 l 256 1132 l 39 0 l 125 0 l 172 271 l 326 271 z m 247 701 l 253 701 l 315 338 l 183 338 z "},"Ẩ":{"ha":501,"x_min":0,"x_max":0,"o":"m 349 1118 l 450 1118 b 529 1267 451 1183 529 1199 b 426 1344 529 1313 494 1344 b 364 1332 399 1344 376 1340 l 364 1265 b 410 1278 375 1274 383 1278 b 456 1251 447 1278 456 1268 b 407 1163 456 1219 422 1203 l 257 1322 l 67 1118 l 165 1118 l 257 1218 z m 374 0 l 463 0 l 256 1132 l 39 0 l 125 0 l 172 271 l 326 271 z m 247 701 l 253 701 l 315 338 l 183 338 z "},"Ẫ":{"ha":501,"x_min":0,"x_max":0,"o":"m 432 1340 b 343 1293 408 1310 383 1293 b 172 1344 279 1293 233 1344 b 79 1306 136 1344 103 1331 l 79 1232 b 169 1279 103 1264 129 1279 b 217 1271 186 1279 201 1275 l 65 1118 l 164 1118 l 256 1218 l 347 1118 l 447 1118 l 336 1229 b 432 1267 376 1229 408 1242 z m 374 0 l 463 0 l 256 1132 l 39 0 l 125 0 l 172 271 l 326 271 z m 247 701 l 253 701 l 315 338 l 183 338 z "},"Ậ":{"ha":501,"x_min":0,"x_max":0,"o":"m 374 0 l 463 0 l 256 1132 l 39 0 l 125 0 l 172 271 l 326 271 z m 247 701 l 253 701 l 315 338 l 183 338 z m 251 1240 l 363 1118 l 463 1118 l 251 1344 l 39 1118 l 139 1118 z m 249 -222 b 303 -158 285 -222 303 -203 b 249 -94 303 -118 285 -94 b 197 -158 215 -94 197 -118 b 249 -222 197 -203 215 -222 z "},"Ắ":{"ha":501,"x_min":0,"x_max":0,"o":"m 369 1278 b 257 1161 356 1190 333 1161 b 144 1278 179 1161 157 1190 l 60 1278 b 250 1104 74 1171 122 1106 l 39 0 l 125 0 l 172 271 l 326 271 l 374 0 l 463 0 l 260 1104 b 451 1278 388 1106 440 1169 z m 247 701 l 253 701 l 315 338 l 183 338 z m 274 1185 l 397 1344 l 300 1344 l 194 1185 z "},"Ằ":{"ha":501,"x_min":0,"x_max":0,"o":"m 60 1278 b 250 1104 71 1171 122 1106 l 39 0 l 125 0 l 172 271 l 326 271 l 374 0 l 463 0 l 260 1104 b 451 1278 388 1106 438 1171 l 367 1278 b 254 1161 354 1190 332 1161 b 142 1278 178 1161 156 1190 z m 247 701 l 253 701 l 315 338 l 183 338 z m 211 1344 l 114 1344 l 238 1185 l 317 1185 z "},"Ẳ":{"ha":501,"x_min":0,"x_max":0,"o":"m 60 1278 b 250 1104 71 1171 122 1106 l 39 0 l 125 0 l 172 271 l 326 271 l 374 0 l 463 0 l 260 1104 b 451 1278 388 1106 438 1171 l 367 1278 b 271 1161 354 1197 335 1165 b 336 1267 294 1194 336 1217 b 233 1344 336 1313 301 1344 b 171 1332 206 1344 183 1340 l 171 1265 b 217 1278 182 1274 190 1278 b 263 1251 254 1278 263 1268 b 214 1164 263 1221 231 1204 b 142 1278 169 1175 153 1207 z m 247 701 l 253 701 l 315 338 l 183 338 z "},"Ẵ":{"ha":501,"x_min":0,"x_max":0,"o":"m 431 1340 b 342 1293 407 1310 382 1293 b 171 1344 278 1293 232 1344 b 78 1306 135 1344 101 1331 l 78 1278 l 60 1278 b 250 1104 71 1171 122 1106 l 39 0 l 125 0 l 172 271 l 326 271 l 374 0 l 463 0 l 260 1104 b 451 1278 388 1106 438 1171 l 431 1278 z m 247 701 l 253 701 l 315 338 l 183 338 z m 254 1161 b 142 1276 178 1161 156 1190 b 168 1279 150 1278 158 1279 b 339 1229 231 1279 278 1229 l 357 1229 b 254 1161 342 1179 315 1161 z "},"Ặ":{"ha":501,"x_min":0,"x_max":0,"o":"m 369 1344 b 257 1168 356 1231 333 1168 b 144 1344 179 1168 157 1231 l 60 1344 b 253 1118 74 1204 124 1119 l 39 0 l 125 0 l 172 271 l 326 271 l 374 0 l 463 0 l 258 1118 b 451 1344 388 1118 440 1203 z m 247 701 l 253 701 l 315 338 l 183 338 z m 249 -222 b 303 -158 285 -222 303 -203 b 249 -94 303 -118 285 -94 b 197 -158 215 -94 197 -118 b 249 -222 197 -203 215 -222 z "},"Ẹ":{"ha":386,"x_min":0,"x_max":0,"o":"m 332 0 l 332 83 l 185 83 l 185 271 l 317 271 l 317 338 l 185 338 l 185 994 l 319 994 l 319 1082 l 96 1082 l 96 0 z m 211 -222 b 265 -158 247 -222 265 -203 b 211 -94 265 -118 247 -94 b 160 -158 178 -94 160 -118 b 211 -222 160 -203 178 -222 z "},"Ẻ":{"ha":386,"x_min":0,"x_max":0,"o":"m 332 0 l 332 83 l 185 83 l 185 271 l 317 271 l 317 338 l 185 338 l 185 994 l 319 994 l 319 1082 l 96 1082 l 96 0 z m 228 1113 b 322 1258 229 1183 322 1183 b 199 1344 322 1308 281 1344 b 125 1331 167 1344 139 1339 l 125 1257 b 179 1271 138 1265 147 1271 b 235 1242 224 1271 235 1260 b 165 1113 235 1197 167 1196 z "},"Ẽ":{"ha":386,"x_min":0,"x_max":0,"o":"m 332 0 l 332 83 l 185 83 l 185 271 l 317 271 l 317 338 l 185 338 l 185 994 l 319 994 l 319 1082 l 96 1082 l 96 0 z m 397 1278 b 301 1228 372 1244 344 1228 b 117 1282 233 1228 183 1282 b 17 1240 78 1282 43 1267 l 17 1161 b 114 1213 43 1196 71 1213 b 299 1158 182 1213 232 1158 b 397 1199 338 1158 372 1172 z "},"Ế":{"ha":386,"x_min":0,"x_max":0,"o":"m 375 1178 l 504 1344 l 407 1344 l 306 1200 l 192 1322 l 0 1118 l 100 1118 l 192 1218 l 283 1118 l 382 1118 l 326 1178 z m 332 0 l 332 83 l 185 83 l 185 271 l 317 271 l 317 338 l 185 338 l 185 994 l 319 994 l 319 1082 l 96 1082 l 96 0 z "},"Ề":{"ha":386,"x_min":0,"x_max":0,"o":"m 304 1118 l 404 1118 l 213 1322 l 100 1200 l -3 1344 l -100 1344 l 29 1178 l 78 1178 l 22 1118 l 121 1118 l 213 1218 z m 332 0 l 332 83 l 185 83 l 185 271 l 317 271 l 317 338 l 185 338 l 185 994 l 319 994 l 319 1082 l 96 1082 l 96 0 z "},"Ể":{"ha":386,"x_min":0,"x_max":0,"o":"m 286 1118 l 388 1118 b 467 1267 389 1183 467 1199 b 364 1344 467 1313 432 1344 b 301 1332 336 1344 314 1340 l 301 1265 b 347 1278 313 1274 321 1278 b 393 1251 385 1278 393 1268 b 344 1163 393 1219 360 1203 l 194 1322 l 4 1118 l 103 1118 l 194 1218 z m 332 0 l 332 83 l 185 83 l 185 271 l 317 271 l 317 338 l 185 338 l 185 994 l 319 994 l 319 1082 l 96 1082 l 96 0 z "},"Ễ":{"ha":386,"x_min":0,"x_max":0,"o":"m 371 1340 b 282 1293 347 1310 322 1293 b 111 1344 218 1293 172 1344 b 18 1306 75 1344 42 1331 l 18 1232 b 108 1279 42 1264 68 1279 b 156 1271 125 1279 140 1275 l 4 1118 l 103 1118 l 194 1218 l 286 1118 l 386 1118 l 275 1229 b 371 1267 315 1229 347 1242 z m 332 0 l 332 83 l 185 83 l 185 271 l 317 271 l 317 338 l 185 338 l 185 994 l 319 994 l 319 1082 l 96 1082 l 96 0 z "},"Ệ":{"ha":386,"x_min":0,"x_max":0,"o":"m 332 0 l 332 83 l 185 83 l 185 271 l 317 271 l 317 338 l 185 338 l 185 994 l 319 994 l 319 1082 l 96 1082 l 96 0 z m 210 1240 l 321 1118 l 421 1118 l 210 1344 l -3 1118 l 97 1118 z m 211 -222 b 265 -158 247 -222 265 -203 b 211 -94 265 -118 247 -94 b 160 -158 178 -94 160 -118 b 211 -222 160 -203 178 -222 z "},"Ỉ":{"ha":281,"x_min":0,"x_max":0,"o":"m 185 0 l 185 1082 l 96 1082 l 96 0 z m 169 1113 b 264 1258 171 1183 264 1183 b 140 1344 264 1308 222 1344 b 67 1331 108 1344 81 1339 l 67 1257 b 121 1271 79 1265 89 1271 b 176 1242 165 1271 176 1260 b 107 1113 176 1197 108 1196 z "},"Ị":{"ha":281,"x_min":0,"x_max":0,"o":"m 185 0 l 185 1082 l 96 1082 l 96 0 z m 139 -222 b 193 -158 175 -222 193 -203 b 139 -94 193 -118 175 -94 b 88 -158 106 -94 88 -118 b 139 -222 88 -203 106 -222 z "},"Ọ":{"ha":506,"x_min":0,"x_max":0,"o":"m 443 531 b 253 1096 443 921 372 1096 b 63 531 133 1096 63 921 b 253 -15 63 139 133 -15 b 443 531 372 -15 443 139 z m 151 531 b 253 1008 151 821 185 1008 b 354 531 321 1008 354 821 b 253 71 354 240 321 71 b 151 531 185 71 151 240 z m 251 -222 b 306 -158 288 -222 306 -203 b 251 -94 306 -118 288 -94 b 200 -158 218 -94 200 -118 b 251 -222 200 -203 218 -222 z "},"Ỏ":{"ha":506,"x_min":0,"x_max":0,"o":"m 443 531 b 253 1096 443 921 372 1096 b 63 531 133 1096 63 921 b 253 -15 63 139 133 -15 b 443 531 372 -15 443 139 z m 151 531 b 253 1008 151 821 185 1008 b 354 531 321 1008 354 821 b 253 71 354 240 321 71 b 151 531 185 71 151 240 z m 285 1113 b 379 1258 286 1183 379 1183 b 256 1344 379 1308 338 1344 b 182 1331 224 1344 196 1339 l 182 1257 b 236 1271 194 1265 204 1271 b 292 1242 281 1271 292 1260 b 222 1113 292 1197 224 1196 z "},"Ố":{"ha":506,"x_min":0,"x_max":0,"o":"m 436 1178 l 565 1344 l 468 1344 l 367 1200 l 253 1322 l 61 1118 l 161 1118 l 253 1218 l 344 1118 l 443 1118 l 388 1178 z m 443 531 b 253 1096 443 921 372 1096 b 63 531 133 1096 63 921 b 253 -15 63 139 133 -15 b 443 531 372 -15 443 139 z m 151 531 b 253 1008 151 821 185 1008 b 354 531 321 1008 354 821 b 253 71 354 240 321 71 b 151 531 185 71 151 240 z "},"Ồ":{"ha":506,"x_min":0,"x_max":0,"o":"m 360 1118 l 460 1118 l 268 1322 l 156 1200 l 53 1344 l -44 1344 l 85 1178 l 133 1178 l 78 1118 l 176 1118 l 268 1218 z m 443 531 b 253 1096 443 921 372 1096 b 63 531 133 1096 63 921 b 253 -15 63 139 133 -15 b 443 531 372 -15 443 139 z m 151 531 b 253 1008 151 821 185 1008 b 354 531 321 1008 354 821 b 253 71 354 240 321 71 b 151 531 185 71 151 240 z "},"Ổ":{"ha":506,"x_min":0,"x_max":0,"o":"m 356 1118 l 457 1118 b 536 1267 458 1183 536 1199 b 433 1344 536 1313 501 1344 b 371 1332 406 1344 383 1340 l 371 1265 b 417 1278 382 1274 390 1278 b 463 1251 454 1278 463 1268 b 414 1163 463 1219 429 1203 l 264 1322 l 74 1118 l 172 1118 l 264 1218 z m 443 531 b 253 1096 443 921 372 1096 b 63 531 133 1096 63 921 b 253 -15 63 139 133 -15 b 443 531 372 -15 443 139 z m 151 531 b 253 1008 151 821 185 1008 b 354 531 321 1008 354 821 b 253 71 354 240 321 71 b 151 531 185 71 151 240 z "},"Ỗ":{"ha":506,"x_min":0,"x_max":0,"o":"m 428 1340 b 339 1293 404 1310 379 1293 b 168 1344 275 1293 229 1344 b 75 1306 132 1344 99 1331 l 75 1232 b 165 1279 99 1264 125 1279 b 213 1271 182 1279 197 1275 l 61 1118 l 160 1118 l 251 1218 l 343 1118 l 443 1118 l 332 1229 b 428 1267 372 1229 404 1242 z m 443 531 b 253 1096 443 921 372 1096 b 63 531 133 1096 63 921 b 253 -15 63 139 133 -15 b 443 531 372 -15 443 139 z m 151 531 b 253 1008 151 821 185 1008 b 354 531 321 1008 354 821 b 253 71 354 240 321 71 b 151 531 185 71 151 240 z "},"Ộ":{"ha":506,"x_min":0,"x_max":0,"o":"m 443 531 b 253 1096 443 921 372 1096 b 63 531 133 1096 63 921 b 253 -15 63 139 133 -15 b 443 531 372 -15 443 139 z m 151 531 b 253 1008 151 821 185 1008 b 354 531 321 1008 354 821 b 253 71 354 240 321 71 b 151 531 185 71 151 240 z m 254 1240 l 365 1118 l 465 1118 l 254 1344 l 42 1118 l 142 1118 z m 251 -222 b 306 -158 288 -222 306 -203 b 251 -94 306 -118 288 -94 b 200 -158 218 -94 200 -118 b 251 -222 200 -203 218 -222 z "},"Ớ":{"ha":506,"x_min":0,"x_max":0,"o":"m 418 1235 b 431 1163 426 1218 431 1190 b 368 1082 431 1107 414 1082 l 307 1082 b 253 1096 290 1090 272 1096 b 63 531 133 1096 63 921 b 253 -15 63 139 133 -15 b 443 531 372 -15 443 139 b 342 1053 443 810 406 979 l 375 1053 b 519 1169 479 1053 519 1100 b 507 1235 519 1194 514 1224 z m 151 531 b 253 1008 151 821 185 1008 b 354 531 321 1008 354 821 b 253 71 354 240 321 71 b 151 531 185 71 151 240 z m 258 1118 l 421 1344 l 324 1344 l 168 1118 z "},"Ờ":{"ha":506,"x_min":0,"x_max":0,"o":"m 418 1235 b 431 1163 426 1218 431 1190 b 368 1082 431 1107 414 1082 l 307 1082 b 253 1096 290 1090 272 1096 b 63 531 133 1096 63 921 b 253 -15 63 139 133 -15 b 443 531 372 -15 443 139 b 342 1053 443 810 406 979 l 375 1053 b 519 1169 479 1053 519 1100 b 507 1235 519 1194 514 1224 z m 151 531 b 253 1008 151 821 185 1008 b 354 531 321 1008 354 821 b 253 71 354 240 321 71 b 151 531 185 71 151 240 z m 338 1118 l 182 1344 l 85 1344 l 247 1118 z "},"Ở":{"ha":506,"x_min":0,"x_max":0,"o":"m 418 1235 b 431 1163 426 1218 431 1190 b 368 1082 431 1107 414 1082 l 307 1082 b 253 1096 290 1090 272 1096 b 63 531 133 1096 63 921 b 253 -15 63 139 133 -15 b 443 531 372 -15 443 139 b 342 1053 443 810 406 979 l 375 1053 b 519 1169 479 1053 519 1100 b 507 1235 519 1194 514 1224 z m 151 531 b 253 1008 151 821 185 1008 b 354 531 321 1008 354 821 b 253 71 354 240 321 71 b 151 531 185 71 151 240 z m 281 1113 b 375 1258 282 1183 375 1183 b 251 1344 375 1308 333 1344 b 178 1331 219 1344 192 1339 l 178 1257 b 232 1271 190 1265 200 1271 b 288 1242 276 1271 288 1260 b 218 1113 288 1197 219 1196 z "},"Ỡ":{"ha":506,"x_min":0,"x_max":0,"o":"m 443 1278 b 347 1228 418 1244 390 1228 b 163 1282 279 1228 229 1282 b 63 1240 124 1282 89 1267 l 63 1161 b 160 1213 89 1196 117 1213 b 344 1158 228 1213 278 1158 b 429 1186 376 1158 406 1167 b 431 1163 431 1178 431 1169 b 368 1082 431 1107 414 1082 l 307 1082 b 253 1096 290 1090 272 1096 b 63 531 133 1096 63 921 b 253 -15 63 139 133 -15 b 443 531 372 -15 443 139 b 342 1053 443 810 406 979 l 375 1053 b 519 1169 479 1053 519 1100 b 507 1235 519 1194 514 1224 l 443 1235 z m 151 531 b 253 1008 151 821 185 1008 b 354 531 321 1008 354 821 b 253 71 354 240 321 71 b 151 531 185 71 151 240 z "},"Ợ":{"ha":506,"x_min":0,"x_max":0,"o":"m 418 1235 b 431 1163 426 1218 431 1190 b 368 1082 431 1107 414 1082 l 307 1082 b 253 1096 290 1090 272 1096 b 63 531 133 1096 63 921 b 253 -15 63 139 133 -15 b 443 531 372 -15 443 139 b 342 1053 443 810 406 979 l 375 1053 b 519 1169 479 1053 519 1100 b 507 1235 519 1194 514 1224 z m 151 531 b 253 1008 151 821 185 1008 b 354 531 321 1008 354 821 b 253 71 354 240 321 71 b 151 531 185 71 151 240 z m 251 -222 b 306 -158 288 -222 306 -203 b 251 -94 306 -118 288 -94 b 200 -158 218 -94 200 -118 b 251 -222 200 -203 218 -222 z "},"Ụ":{"ha":561,"x_min":0,"x_max":0,"o":"m 281 -14 b 469 356 424 -14 469 125 l 469 1082 l 379 1082 l 379 351 b 281 75 379 165 356 75 b 182 351 207 75 182 165 l 182 1082 l 92 1082 l 92 356 b 281 -14 92 125 139 -14 z m 279 -222 b 333 -158 315 -222 333 -203 b 279 -94 333 -118 315 -94 b 228 -158 246 -94 228 -118 b 279 -222 228 -203 246 -222 z "},"Ủ":{"ha":561,"x_min":0,"x_max":0,"o":"m 281 -14 b 469 356 424 -14 469 125 l 469 1082 l 379 1082 l 379 351 b 281 75 379 165 356 75 b 182 351 207 75 182 165 l 182 1082 l 92 1082 l 92 356 b 281 -14 92 125 139 -14 z m 306 1113 b 400 1258 307 1183 400 1183 b 276 1344 400 1308 358 1344 b 203 1331 244 1344 217 1339 l 203 1257 b 257 1271 215 1265 225 1271 b 313 1242 301 1271 313 1260 b 243 1113 313 1197 244 1196 z "},"Ứ":{"ha":561,"x_min":0,"x_max":0,"o":"m 474 1235 b 486 1163 482 1218 486 1190 b 432 1082 486 1107 469 1082 l 379 1082 l 379 351 b 281 75 379 165 356 75 b 182 351 207 75 182 165 l 182 1082 l 92 1082 l 92 356 b 281 -14 92 125 139 -14 b 469 356 424 -14 469 125 l 469 1054 b 575 1169 543 1063 575 1107 b 563 1235 575 1194 569 1224 z m 286 1118 l 449 1344 l 351 1344 l 196 1118 z "},"Ừ":{"ha":561,"x_min":0,"x_max":0,"o":"m 474 1235 b 486 1163 482 1218 486 1190 b 432 1082 486 1107 469 1082 l 379 1082 l 379 351 b 281 75 379 165 356 75 b 182 351 207 75 182 165 l 182 1082 l 92 1082 l 92 356 b 281 -14 92 125 139 -14 b 469 356 424 -14 469 125 l 469 1054 b 575 1169 543 1063 575 1107 b 563 1235 575 1194 569 1224 z m 365 1118 l 210 1344 l 113 1344 l 275 1118 z "},"Ử":{"ha":561,"x_min":0,"x_max":0,"o":"m 474 1235 b 486 1163 482 1218 486 1190 b 432 1082 486 1107 469 1082 l 379 1082 l 379 351 b 281 75 379 165 356 75 b 182 351 207 75 182 165 l 182 1082 l 92 1082 l 92 356 b 281 -14 92 125 139 -14 b 469 356 424 -14 469 125 l 469 1054 b 575 1169 543 1063 575 1107 b 563 1235 575 1194 569 1224 z m 315 1113 b 410 1258 317 1183 410 1183 b 286 1344 410 1308 368 1344 b 213 1331 254 1344 226 1339 l 213 1257 b 267 1271 225 1265 235 1271 b 322 1242 311 1271 322 1260 b 253 1113 322 1197 254 1196 z "},"Ữ":{"ha":561,"x_min":0,"x_max":0,"o":"m 474 1235 b 486 1163 482 1218 486 1190 b 432 1082 486 1107 469 1082 l 379 1082 l 379 351 b 281 75 379 165 356 75 b 182 351 207 75 182 165 l 182 1082 l 92 1082 l 92 356 b 281 -14 92 125 139 -14 b 469 356 424 -14 469 125 l 469 1054 b 575 1169 543 1063 575 1107 b 563 1235 575 1194 569 1224 z m 471 1278 b 375 1228 446 1244 418 1228 b 190 1282 307 1228 257 1282 b 90 1240 151 1282 117 1267 l 90 1161 b 188 1213 117 1196 144 1213 b 372 1158 256 1213 306 1158 b 471 1199 411 1158 446 1172 z "},"Ự":{"ha":561,"x_min":0,"x_max":0,"o":"m 474 1235 b 486 1163 482 1218 486 1190 b 432 1082 486 1107 469 1082 l 379 1082 l 379 351 b 281 75 379 165 356 75 b 182 351 207 75 182 165 l 182 1082 l 92 1082 l 92 356 b 281 -14 92 125 139 -14 b 469 356 424 -14 469 125 l 469 1054 b 575 1169 543 1063 575 1107 b 563 1235 575 1194 569 1224 z m 279 -222 b 333 -158 315 -222 333 -203 b 279 -94 333 -118 315 -94 b 228 -158 246 -94 228 -118 b 279 -222 228 -203 246 -222 z "},"Ỳ":{"ha":519,"x_min":0,"x_max":0,"o":"m 306 0 l 306 479 l 486 1082 l 406 1082 l 268 601 l 263 601 l 124 1082 l 33 1082 l 217 479 l 217 0 z m 344 1118 l 189 1344 l 92 1344 l 254 1118 z "},"Ỷ":{"ha":519,"x_min":0,"x_max":0,"o":"m 306 0 l 306 479 l 486 1082 l 406 1082 l 268 601 l 263 601 l 124 1082 l 33 1082 l 217 479 l 217 0 z m 289 1113 b 383 1258 290 1183 383 1183 b 260 1344 383 1308 342 1344 b 186 1331 228 1344 200 1339 l 186 1257 b 240 1271 199 1265 208 1271 b 296 1242 285 1271 296 1260 b 226 1113 296 1197 228 1196 z "},"​":{"ha":0,"x_min":0,"x_max":0,"o":""},"–":{"ha":433,"x_min":0,"x_max":0,"o":"m 410 271 l 410 338 l 22 338 l 22 271 z "},"—":{"ha":649,"x_min":0,"x_max":0,"o":"m 650 271 l 650 338 l 0 338 l 0 271 z "},"‘":{"ha":190,"x_min":0,"x_max":0,"o":"m 93 971 b 156 1113 115 1038 138 1090 l 99 1113 b 35 900 69 1064 35 957 b 96 826 35 851 56 826 b 156 900 135 826 156 851 b 93 971 156 949 135 971 z "},"’":{"ha":190,"x_min":0,"x_max":0,"o":"m 97 954 b 35 813 75 888 53 836 l 92 813 b 156 1026 121 861 156 968 b 94 1099 156 1074 135 1099 b 35 1026 56 1099 35 1074 b 97 954 35 976 56 954 z "},"‚":{"ha":190,"x_min":0,"x_max":0,"o":"m 97 -12 b 35 -156 75 -81 53 -132 l 92 -156 b 156 58 121 -106 156 0 b 94 131 156 106 135 131 b 35 58 56 131 35 106 b 97 -12 35 8 56 -12 z "},"“":{"ha":353,"x_min":0,"x_max":0,"o":"m 93 971 b 156 1113 115 1038 138 1090 l 99 1113 b 35 900 69 1064 35 957 b 96 826 35 851 56 826 b 156 900 135 826 156 851 b 93 971 156 949 135 971 z m 256 971 b 318 1113 278 1038 300 1090 l 261 1113 b 197 900 232 1064 197 957 b 258 826 197 851 218 826 b 318 900 297 826 318 851 b 256 971 318 949 297 971 z "},"”":{"ha":353,"x_min":0,"x_max":0,"o":"m 97 954 b 35 813 75 888 53 836 l 92 813 b 156 1026 121 861 156 968 b 94 1099 156 1074 135 1099 b 35 1026 56 1099 35 1074 b 97 954 35 976 56 954 z m 260 954 b 197 813 238 888 215 836 l 254 813 b 318 1026 283 861 318 968 b 257 1099 318 1074 297 1099 b 197 1026 218 1099 197 1074 b 260 954 197 976 218 954 z "},"„":{"ha":353,"x_min":0,"x_max":0,"o":"m 97 -12 b 35 -156 75 -81 53 -132 l 92 -156 b 156 58 121 -106 156 0 b 94 131 156 106 135 131 b 35 58 56 131 35 106 b 97 -12 35 8 56 -12 z m 260 -12 b 197 -156 238 -81 215 -132 l 254 -156 b 318 58 283 -106 318 0 b 257 131 318 106 297 131 b 197 58 218 131 197 106 b 260 -12 197 8 218 -12 z "},"†":{"ha":456,"x_min":0,"x_max":0,"o":"m 399 832 l 399 871 l 265 893 l 265 1082 l 189 1082 l 189 893 l 56 871 l 56 832 l 189 832 l 189 729 b 228 -17 189 446 208 208 b 265 729 244 207 265 447 l 265 832 z "},"‡":{"ha":456,"x_min":0,"x_max":0,"o":"m 265 0 l 265 183 l 399 208 l 399 246 l 265 246 l 265 319 b 247 540 265 400 258 472 b 265 763 258 608 265 682 l 265 836 l 399 836 l 399 874 l 265 899 l 265 1082 l 189 1082 l 189 899 l 56 874 l 56 836 l 189 836 l 189 763 b 206 540 189 682 197 608 b 189 319 197 472 189 400 l 189 246 l 56 246 l 56 208 l 189 183 l 189 0 z "},"•":{"ha":419,"x_min":0,"x_max":0,"o":"m 364 518 b 210 672 364 611 294 672 b 56 518 121 672 56 611 b 210 367 56 432 121 367 b 364 518 294 367 364 432 z "},"…":{"ha":714,"x_min":0,"x_max":0,"o":"m 114 -12 b 175 58 154 -12 175 8 b 114 131 175 106 154 131 b 54 58 75 131 54 106 b 114 -12 54 8 75 -12 z m 356 -12 b 417 58 396 -12 417 8 b 356 131 417 106 396 131 b 296 58 317 131 296 106 b 356 -12 296 8 317 -12 z m 597 -12 b 658 58 638 -12 658 8 b 597 131 658 106 638 131 b 538 58 558 131 538 106 b 597 -12 538 8 558 -12 z "},"‰":{"ha":938,"x_min":0,"x_max":0,"o":"m 269 781 b 165 1092 269 943 238 1092 b 63 781 93 1092 63 943 b 165 479 63 618 93 479 b 269 781 238 479 269 617 z m 124 781 b 165 1042 124 889 129 1042 b 207 781 201 1042 207 889 b 165 529 207 671 200 529 b 124 781 131 529 124 671 z m 151 0 l 608 1082 l 540 1082 l 82 0 z m 640 293 b 536 604 640 456 608 604 b 433 293 464 604 433 456 b 536 -8 433 131 464 -8 b 640 293 608 -8 640 129 z m 494 293 b 536 554 494 401 500 554 b 578 293 572 554 578 401 b 536 42 578 183 571 42 b 494 293 501 42 494 183 z m 875 293 b 771 604 875 456 843 604 b 668 293 699 604 668 456 b 771 -8 668 131 699 -8 b 875 293 843 -8 875 129 z m 729 293 b 771 554 729 401 735 554 b 813 293 807 554 813 401 b 771 42 813 183 806 42 b 729 293 736 42 729 183 z "},"′":{"ha":181,"x_min":0,"x_max":0,"o":"m 61 724 l 264 1082 l 171 1082 l 0 724 z "},"″":{"ha":361,"x_min":0,"x_max":0,"o":"m 61 724 l 264 1082 l 171 1082 l 0 724 z m 242 724 l 444 1082 l 351 1082 l 181 724 z "},"‹":{"ha":210,"x_min":0,"x_max":0,"o":"m 100 607 l 22 304 l 100 0 l 186 0 l 108 304 l 186 607 z "},"›":{"ha":210,"x_min":0,"x_max":0,"o":"m 22 607 l 99 304 l 22 0 l 107 0 l 186 304 l 107 607 z "},"⁄":{"ha":219,"x_min":0,"x_max":0,"o":"m -83 0 l 374 1082 l 306 1082 l -153 0 z "},"⁰":{"ha":304,"x_min":0,"x_max":0,"o":"m 256 781 b 151 1092 256 943 224 1092 b 49 781 79 1092 49 943 b 151 479 49 618 79 479 b 256 781 224 479 256 617 z m 110 781 b 151 1042 110 889 115 1042 b 193 781 188 1042 193 889 b 151 529 193 671 186 529 b 110 781 117 529 110 671 z "},"⁴":{"ha":310,"x_min":0,"x_max":0,"o":"m 242 488 l 242 636 l 263 636 l 263 674 l 242 674 l 242 1092 l 29 636 l 179 636 l 179 488 z m 179 674 l 107 674 l 179 838 z "},"⁵":{"ha":281,"x_min":0,"x_max":0,"o":"m 171 718 b 100 528 171 601 147 528 b 61 540 81 528 69 533 l 61 492 b 110 479 68 485 81 479 b 233 718 196 483 233 572 b 119 917 233 824 210 904 l 124 1035 l 218 1035 l 218 1082 l 64 1082 l 57 879 b 71 881 61 881 65 881 b 171 718 142 881 171 829 z "},"⁶":{"ha":318,"x_min":0,"x_max":0,"o":"m 271 682 b 168 892 271 828 232 892 b 113 871 142 892 125 882 b 182 1043 122 979 149 1043 b 222 1031 201 1043 214 1038 l 222 1079 b 178 1092 214 1086 201 1092 b 49 719 64 1092 49 940 b 160 479 49 538 88 479 b 271 682 232 479 271 538 z m 111 682 b 160 843 111 775 125 843 b 208 682 193 843 208 775 b 160 528 208 590 193 528 b 111 682 125 528 111 590 z "},"⁷":{"ha":244,"x_min":0,"x_max":0,"o":"m 122 488 l 210 1082 l 29 1082 l 29 1035 l 142 1035 l 57 488 z "},"⁸":{"ha":329,"x_min":0,"x_max":0,"o":"m 285 860 b 164 1093 285 949 267 1093 b 46 860 60 1093 46 926 b 115 638 46 700 74 656 l 115 633 b 54 563 83 628 54 597 b 165 479 54 510 96 479 b 275 563 233 479 275 510 b 215 633 275 597 246 628 l 215 638 b 285 860 254 656 285 700 z m 107 860 b 164 1040 107 968 131 1040 b 222 860 197 1040 222 968 b 164 654 222 707 196 660 b 107 860 132 660 107 708 z m 115 571 b 164 617 115 596 142 614 b 214 571 188 614 214 596 b 164 526 214 546 196 526 b 115 571 132 526 115 546 z "},"⁹":{"ha":315,"x_min":0,"x_max":0,"o":"m 175 488 b 267 850 233 561 267 688 b 156 1092 267 1033 228 1092 b 43 888 83 1092 43 1033 b 146 678 43 743 83 678 b 201 697 172 678 189 686 b 101 488 192 629 158 557 z m 204 888 b 156 726 204 794 189 726 b 107 888 121 726 107 794 b 156 1042 107 979 121 1042 b 204 888 189 1042 204 979 z "},"₀":{"ha":304,"x_min":0,"x_max":0,"o":"m 256 293 b 151 604 256 456 224 604 b 49 293 79 604 49 456 b 151 -8 49 131 79 -8 b 256 293 224 -8 256 129 z m 110 293 b 151 554 110 401 115 554 b 193 293 188 554 193 401 b 151 42 193 183 186 42 b 110 293 117 42 110 183 z "},"₁":{"ha":196,"x_min":0,"x_max":0,"o":"m 129 0 l 129 604 l 67 524 l 67 0 z "},"₂":{"ha":300,"x_min":0,"x_max":0,"o":"m 249 0 l 249 46 l 121 46 l 121 86 b 253 463 121 247 253 300 b 139 604 253 549 214 604 b 92 592 110 604 99 596 l 92 543 b 133 556 101 551 113 556 b 192 457 171 556 192 521 b 58 88 192 329 58 250 l 58 0 z "},"₃":{"ha":289,"x_min":0,"x_max":0,"o":"m 100 388 b 171 236 147 388 171 333 b 100 40 171 114 147 40 b 61 53 81 40 69 46 l 61 4 b 106 -8 69 -3 81 -8 b 233 236 194 -8 233 82 b 169 415 233 329 214 386 l 243 594 l 61 594 l 61 547 l 161 547 z "},"₄":{"ha":310,"x_min":0,"x_max":0,"o":"m 242 0 l 242 149 l 263 149 l 263 186 l 242 186 l 242 604 l 29 149 l 179 149 l 179 0 z m 179 186 l 107 186 l 179 350 z "},"₅":{"ha":281,"x_min":0,"x_max":0,"o":"m 171 231 b 100 40 171 114 147 40 b 61 53 81 40 69 46 l 61 4 b 110 -8 68 -3 81 -8 b 233 231 196 -4 233 85 b 119 429 233 336 210 417 l 124 547 l 218 547 l 218 594 l 64 594 l 57 392 b 71 393 61 393 65 393 b 171 231 142 393 171 342 z "},"₆":{"ha":318,"x_min":0,"x_max":0,"o":"m 271 194 b 168 404 271 340 232 404 b 113 383 142 404 125 394 b 182 556 122 492 149 556 b 222 543 201 556 214 550 l 222 592 b 178 604 214 599 201 604 b 49 232 64 604 49 453 b 160 -8 49 50 88 -8 b 271 194 232 -8 271 50 z m 111 194 b 160 356 111 288 125 356 b 208 194 193 356 208 288 b 160 40 208 103 193 40 b 111 194 125 40 111 103 z "},"₇":{"ha":244,"x_min":0,"x_max":0,"o":"m 122 0 l 210 594 l 29 594 l 29 547 l 142 547 l 57 0 z "},"₈":{"ha":329,"x_min":0,"x_max":0,"o":"m 285 372 b 164 606 285 461 267 606 b 46 372 60 606 46 439 b 115 150 46 213 74 168 l 115 146 b 54 75 83 140 54 110 b 165 -8 54 22 96 -8 b 275 75 233 -8 275 22 b 215 146 275 110 246 140 l 215 150 b 285 372 254 168 285 213 z m 107 372 b 164 553 107 481 131 553 b 222 372 197 553 222 481 b 164 167 222 219 196 172 b 107 372 132 172 107 221 z m 115 83 b 164 129 115 108 142 126 b 214 83 188 126 214 108 b 164 39 214 58 196 39 b 115 83 132 39 115 58 z "},"₉":{"ha":315,"x_min":0,"x_max":0,"o":"m 175 0 b 267 363 233 74 267 200 b 156 604 267 546 228 604 b 43 400 83 604 43 546 b 146 190 43 256 83 190 b 201 210 172 190 189 199 b 101 0 192 142 158 69 z m 204 400 b 156 239 204 307 189 239 b 107 400 121 239 107 307 b 156 554 107 492 121 554 b 204 400 189 554 204 492 z "},"₩":{"ha":836,"x_min":0,"x_max":0,"o":"m 571 -50 l 668 436 l 743 436 l 743 503 l 681 503 l 697 582 l 743 582 l 743 649 l 710 649 l 797 1082 l 710 1082 l 629 649 l 514 649 l 418 1132 l 317 649 l 204 649 l 133 1082 l 39 1082 l 118 649 l 93 649 l 93 582 l 131 582 l 146 503 l 93 503 l 93 436 l 158 436 l 249 -50 l 354 436 l 474 436 z m 386 582 l 444 582 l 461 503 l 368 503 z m 526 582 l 617 582 l 603 503 l 543 503 z m 215 582 l 303 582 l 286 503 l 228 503 z m 571 363 l 556 436 l 590 436 l 576 363 z m 251 363 l 239 436 l 272 436 l 257 363 z m 414 711 l 419 711 l 432 649 l 400 649 z "},"₪":{"ha":667,"x_min":0,"x_max":0,"o":"m 439 175 l 439 628 b 260 813 439 744 381 813 l 96 813 l 96 0 l 185 0 l 185 746 l 261 746 b 354 624 332 746 354 686 l 354 175 z m 228 638 l 228 185 b 407 0 228 68 286 0 l 571 0 l 571 813 l 482 813 l 482 67 l 406 67 b 313 189 335 67 313 126 l 313 638 z "},"€":{"ha":431,"x_min":0,"x_max":0,"o":"m 254 271 l 268 338 l 181 338 b 175 435 178 367 176 399 l 289 435 l 303 501 l 174 501 l 174 540 b 303 1010 174 875 219 1010 b 376 986 339 1010 360 1000 l 399 1064 b 294 1097 371 1083 346 1097 b 85 540 157 1097 85 932 l 85 501 l 22 501 l 8 435 l 86 435 b 93 338 88 400 90 368 l 22 338 l 8 271 l 101 271 b 294 -14 129 72 194 -14 b 376 7 338 -14 361 -6 l 376 96 b 303 72 360 83 339 72 b 189 271 247 72 207 132 z "},"₭":{"ha":532,"x_min":0,"x_max":0,"o":"m 546 0 b 236 322 444 49 304 213 l 507 322 l 507 389 l 232 389 l 497 1082 l 407 1082 l 189 494 l 183 494 l 183 1082 l 96 1082 l 96 389 l 24 389 l 24 322 l 96 322 l 96 0 l 183 0 l 183 263 l 186 269 b 400 0 250 156 340 36 z "},"₮":{"ha":371,"x_min":0,"x_max":0,"o":"m 231 0 l 231 321 l 315 351 l 315 407 l 231 376 l 231 543 l 315 574 l 315 629 l 231 599 l 231 994 l 343 994 l 343 1082 l 28 1082 l 28 994 l 143 994 l 143 567 l 56 536 l 56 481 l 143 511 l 143 344 l 56 314 l 56 258 l 143 289 l 143 0 z "},"₱":{"ha":488,"x_min":0,"x_max":0,"o":"m 183 269 b 410 533 299 338 376 417 l 476 533 l 476 589 l 422 589 b 429 686 426 618 429 651 b 426 753 429 708 428 731 l 476 753 l 476 808 l 418 808 b 96 1090 389 965 294 1085 l 96 808 l 11 808 l 11 753 l 96 753 l 96 589 l 11 589 l 11 533 l 96 533 l 96 0 l 183 0 z m 342 672 b 335 589 342 642 339 614 l 183 589 l 183 753 l 336 753 b 342 672 339 726 342 699 z m 183 996 b 326 808 258 976 306 901 l 183 808 z m 183 350 l 183 533 l 322 533 b 183 350 299 458 253 400 z "},"₲":{"ha":463,"x_min":0,"x_max":0,"o":"m 68 0 l 108 136 b 260 0 142 40 193 0 b 383 57 307 0 358 26 l 383 600 l 306 600 l 306 97 b 258 83 297 89 278 83 b 160 311 207 83 175 164 l 410 1149 l 358 1149 l 339 1085 b 272 1097 325 1093 304 1097 b 63 540 133 1097 63 932 b 85 231 63 413 71 310 l 17 0 z m 151 540 b 281 1010 151 875 196 1010 b 315 1006 294 1010 306 1008 l 151 454 z "},"₴":{"ha":438,"x_min":0,"x_max":0,"o":"m 226 642 b 88 413 186 578 122 501 l 28 413 l 28 344 l 67 344 b 60 261 63 319 60 292 b 283 -14 60 94 142 -14 b 364 7 326 -14 351 -4 l 364 96 b 294 72 346 81 328 72 b 150 261 196 72 150 144 b 160 344 150 293 153 319 l 410 344 l 410 413 l 185 413 b 325 642 231 503 303 586 l 410 642 l 410 713 l 356 713 b 378 844 369 751 378 794 b 185 1097 378 996 304 1097 b 108 1075 142 1097 121 1083 l 108 986 b 175 1010 118 999 143 1010 b 290 840 247 1010 290 950 b 264 713 290 788 281 749 l 28 713 l 28 642 z "},"₸":{"ha":371,"x_min":0,"x_max":0,"o":"m 231 0 l 231 789 l 343 789 l 343 876 l 28 876 l 28 789 l 143 789 l 143 0 z m 343 994 l 343 1082 l 28 1082 l 28 994 z "},"₹":{"ha":529,"x_min":0,"x_max":0,"o":"m 481 811 l 494 878 l 357 878 b 261 1015 336 933 306 981 l 481 1015 l 494 1082 l 50 1082 l 36 1015 l 90 1015 b 264 878 174 1006 231 953 l 50 878 l 36 811 l 285 811 b 300 672 294 768 300 722 b 97 332 300 524 249 428 b 358 0 206 163 297 35 l 504 0 b 203 308 418 43 300 163 b 388 686 324 396 388 508 b 375 811 388 729 383 772 z "},"₺":{"ha":417,"x_min":0,"x_max":0,"o":"m 340 797 l 340 864 l 169 800 l 169 908 l 340 972 l 340 1039 l 169 975 l 169 1082 l 82 1082 l 82 943 l 25 922 l 25 856 l 82 876 l 82 768 l 25 749 l 25 682 l 82 701 l 82 -7 b 379 271 246 -3 335 114 l 304 271 b 169 88 281 186 233 111 l 169 733 z "},"₼":{"ha":561,"x_min":0,"x_max":0,"o":"m 236 1082 l 236 381 b 58 15 122 354 58 221 l 58 0 l 146 0 l 146 19 b 236 290 146 171 178 263 l 236 0 l 325 0 l 325 290 b 415 19 383 263 415 171 l 415 0 l 503 0 l 503 15 b 325 381 503 221 439 354 l 325 1082 z "},"₽":{"ha":482,"x_min":0,"x_max":0,"o":"m 381 132 l 381 199 l 181 199 l 181 269 b 426 686 351 354 426 481 b 93 1090 426 900 342 1083 l 93 338 l 22 338 l 22 271 l 93 271 l 93 199 l 22 199 l 22 132 l 93 132 l 93 0 l 181 0 l 181 132 z m 181 350 l 181 996 b 339 672 290 968 339 822 b 181 350 339 524 288 418 z "},"₾":{"ha":547,"x_min":0,"x_max":0,"o":"m 317 782 l 317 1008 b 344 1010 325 1010 335 1010 b 375 1007 354 1010 365 1008 l 375 782 l 432 782 l 432 990 b 511 908 469 971 494 940 l 511 1017 b 432 1083 494 1046 469 1069 l 432 1157 l 375 1157 l 375 1096 b 347 1097 365 1097 357 1097 b 317 1096 336 1097 326 1096 l 317 1157 l 260 1157 l 260 1085 b 50 632 97 1033 50 836 b 276 83 50 393 136 232 l 64 83 l 64 0 l 418 0 b 144 649 192 296 144 386 b 260 990 144 821 174 944 l 260 782 z "},"№":{"ha":785,"x_min":0,"x_max":0,"o":"m 447 -50 l 447 1082 l 365 1082 l 365 397 l 360 397 l 96 1132 l 96 0 l 181 0 l 181 647 l 186 647 z m 747 786 b 622 1097 747 1022 718 1097 b 497 786 526 1097 497 1025 b 622 486 497 550 528 486 b 747 786 717 486 747 550 z m 588 786 b 622 1035 588 979 596 1035 b 657 786 649 1035 657 979 b 622 544 657 593 649 544 b 588 786 596 544 588 593 z m 621 282 b 682 353 661 282 682 303 b 621 425 682 400 661 425 b 561 353 582 425 561 400 b 621 282 561 303 582 282 z m 621 74 b 682 144 661 74 682 94 b 621 217 682 192 661 217 b 561 144 582 217 561 192 b 621 74 561 94 582 74 z "},"℗":{"ha":818,"x_min":0,"x_max":0,"o":"m 406 51 b 121 554 226 51 121 206 b 414 1032 121 901 244 1032 b 697 543 583 1032 697 901 b 406 51 697 189 583 51 z m 404 -14 b 756 543 619 -14 756 151 b 411 1097 756 939 619 1097 b 63 553 203 1097 63 939 b 404 -14 63 165 189 -14 z m 378 385 b 529 640 476 443 529 515 b 324 889 529 772 476 885 l 324 221 l 378 221 z m 378 436 l 378 831 b 475 633 444 814 475 725 b 378 436 475 542 444 482 z "},"™":{"ha":696,"x_min":0,"x_max":0,"o":"m 163 472 l 163 1028 l 239 1028 l 239 1082 l 31 1082 l 31 1028 l 110 1028 l 110 472 z m 600 472 l 600 1096 l 446 661 l 296 1096 l 296 472 l 342 472 l 342 796 l 349 796 l 446 515 l 546 796 l 551 796 l 551 472 z "},"∂":{"ha":603,"x_min":0,"x_max":0,"o":"m 261 983 b 325 997 278 994 294 997 b 471 661 456 997 471 796 b 463 474 471 604 468 536 b 299 618 435 564 374 618 b 63 265 144 618 63 457 b 242 -24 63 106 117 -24 b 540 656 492 -24 540 403 b 336 1086 540 813 524 1086 b 261 1072 297 1086 275 1082 z m 450 394 b 251 67 426 224 375 67 b 132 275 169 67 132 154 b 303 547 132 432 189 547 b 450 394 374 547 426 489 z "},"∏":{"ha":619,"x_min":0,"x_max":0,"o":"m 524 -247 l 524 1082 l 96 1082 l 96 -247 l 174 -247 l 174 1004 l 444 1004 l 444 -247 z "},"∑":{"ha":526,"x_min":0,"x_max":0,"o":"m 482 -208 l 482 -128 l 165 -128 l 415 436 l 165 1001 l 482 1001 l 482 1082 l 42 1082 l 336 436 l 42 -208 z "},"−":{"ha":804,"x_min":0,"x_max":0,"o":"m 708 493 l 708 561 l 96 561 l 96 493 z "},"√":{"ha":678,"x_min":0,"x_max":0,"o":"m 678 1082 l 588 1082 l 315 196 l 310 196 l 208 522 l 22 522 l 22 450 l 146 450 l 314 -50 z "},"∞":{"ha":833,"x_min":0,"x_max":0,"o":"m 417 460 b 578 293 428 326 497 293 b 771 528 665 293 771 307 b 578 758 771 747 665 758 b 417 594 497 758 428 726 b 254 758 406 726 339 758 b 63 528 169 758 63 747 b 254 293 63 307 169 293 b 417 460 339 293 406 326 z m 569 382 b 456 528 510 382 456 406 b 569 669 456 649 510 669 b 718 528 636 669 718 663 b 569 382 718 389 635 382 z m 261 382 b 118 528 197 382 118 389 b 263 669 118 663 197 669 b 378 528 324 669 378 649 b 261 382 378 404 322 382 z "},"∫":{"ha":451,"x_min":0,"x_max":0,"o":"m 11 -282 b 107 -312 33 -303 65 -312 b 268 -40 211 -312 268 -237 l 268 875 b 367 1011 268 971 308 1011 b 431 989 392 1011 413 1007 l 439 1069 b 346 1100 419 1090 388 1100 b 183 828 239 1100 183 1025 l 183 -87 b 83 -225 183 -183 143 -225 b 19 -201 60 -225 39 -221 z "},"≈":{"ha":804,"x_min":0,"x_max":0,"o":"m 708 743 b 557 660 664 685 631 660 b 251 736 449 660 361 736 b 96 663 192 736 143 719 l 96 589 b 249 674 142 646 175 674 b 554 596 350 674 442 596 b 708 669 614 596 663 614 z m 708 410 b 557 326 664 351 631 326 b 251 403 449 326 361 403 b 96 329 192 403 143 386 l 96 256 b 249 340 142 313 175 340 b 554 263 350 340 442 263 b 708 336 614 263 663 281 z "},"≠":{"ha":763,"x_min":0,"x_max":0,"o":"m 696 342 l 696 410 l 354 410 l 482 646 l 696 646 l 696 715 l 517 715 l 724 1097 l 660 1097 l 453 715 l 68 715 l 68 646 l 417 646 l 289 410 l 68 410 l 68 342 l 253 342 l 39 -56 l 106 -56 l 318 342 z "},"≤":{"ha":804,"x_min":0,"x_max":0,"o":"m 708 118 l 708 203 l 188 533 l 708 861 l 708 947 l 96 561 l 96 504 z m 708 -1 l 708 67 l 96 67 l 96 -1 z "},"≥":{"ha":804,"x_min":0,"x_max":0,"o":"m 708 504 l 708 561 l 96 947 l 96 861 l 618 533 l 96 203 l 96 118 z m 708 -1 l 708 67 l 96 67 l 96 -1 z "},"◊":{"ha":564,"x_min":0,"x_max":0,"o":"m 542 540 l 279 1097 l 21 540 l 279 -17 z m 465 540 l 279 139 l 94 540 l 279 942 z "}}}
